<svg xmlns="http://www.w3.org/2000/svg" fill-rule="evenodd" stroke-linejoin="round" stroke-miterlimit="2" clip-rule="evenodd" viewBox="0 0 2048 1536">
  <defs/>
  <path fill="none" stroke="#8e8b47" stroke-linecap="round" stroke-miterlimit="1.5" stroke-width="12.8" d="M1518.94 333.381c-18.29-10.11-97.82-25.905-97.82 21.395 0 4.432 1.56 4.86 5.75 5.698 31.81 6.361 92.05-3.565 110.31 32.966 21.61 43.201-82.02 24.694-88.98 45.578-7.57 22.708 81.83 2.81 36.9 47.749M1253.72491 577.1645c-18.29-10.11-97.82-25.905-97.82 21.395 0 4.432 1.56 4.86 5.75 5.698 31.81 6.361 92.05-3.565 110.31 32.966 21.61 43.201-82.02 24.694-88.98 45.578-7.57 22.708 81.83 2.81 36.9 47.749M1891.31291 555.7335c-18.29-10.11-97.82-25.905-97.82 21.395 0 4.432 1.56 4.86 5.75 5.698 31.81 6.361 92.05-3.565 110.31 32.966 21.61 43.201-82.02 24.694-88.98 45.578-7.57 22.708 81.83 2.81 36.9 47.749M207.00091 1069.6025c-18.29-10.11-97.82-25.905-97.82 21.395 0 4.432 1.56 4.86 5.75 5.698 31.81 6.361 92.05-3.565 110.31 32.966 21.61 43.201-82.02 24.694-88.98 45.578-7.57 22.708 81.83 2.81 36.9 47.749M1877.76691 1257.5305c-18.29-10.11-97.82-25.905-97.82 21.395 0 4.432 1.56 4.86 5.75 5.698 31.81 6.361 92.05-3.565 110.31 32.966 21.61 43.201-82.02 24.694-88.98 45.578-7.57 22.708 81.83 2.81 36.9 47.749M372.02 665.757c-1.742-5.226 2.491-1.15 12.683-3.188 35.929-7.186 138.673-49.308 115.031 39.067-9.785 36.58-116.847 8.116-149.757 60.771-22.877 36.604 118.76-2.154 127.75 24.815 9.769 29.307-76.8 26.655-80.001 59.831M1011.2 237.75c.6.36.1-5.002-2.34-5.816-4.28-1.427-9.968-1.4-14.427-1.697-11.069-.738-37.481 5.404-42.44 16.976-6.311 14.724 61.147 19.409 56.017 34.8-3.59 10.797-43.237.801-56.017 13.581-16.334 16.333 24.672 21.162 8.488 37.347M263.07891 115.8845c.6.36.1-5.002-2.34-5.816-4.28-1.427-9.968-1.4-14.427-1.697-11.069-.738-37.481 5.404-42.44 16.976-6.311 14.724 61.147 19.409 56.017 34.8-3.59 10.797-43.237.801-56.017 13.581-16.334 16.333 24.672 21.162 8.488 37.347M1612.06691 92.1875c.6.36.1-5.002-2.34-5.816-4.28-1.427-9.968-1.4-14.427-1.697-11.069-.738-37.481 5.404-42.44 16.976-6.311 14.724 61.147 19.409 56.017 34.8-3.59 10.797-43.237.801-56.017 13.581-16.334 16.333 24.672 21.162 8.488 37.347M1930.30891 872.3955c.6.36.1-5.002-2.34-5.816-4.28-1.427-9.968-1.4-14.427-1.697-11.069-.738-37.481 5.404-42.44 16.976-6.311 14.724 61.147 19.409 56.017 34.8-3.59 10.797-43.237.801-56.017 13.581-16.334 16.333 24.672 21.162 8.488 37.347M1592.06 1066.09c-8.32-56.83-140.07-28.25-150.37 17.54-7.78 34.57 101.5-2.85 128.05 32.55 22.07 29.42-99.33 30.25-54.26 78.14M771.791341 720.328886c32.879768 47.09345 137.897967-37.440931 126.610426-82.997556-8.518314-34.395522-89.48641 47.98497-129.07447 28.21508-32.905055-16.427994 75.280368-71.514897 13.54041-94.16298"/>
  <path fill="none" stroke="#aca859" stroke-linecap="round" stroke-miterlimit="1.5" stroke-width="12.8" d="M552.424 342.474c-2.18.136 52.123-20.109 81.046 16.043 16.643 20.805.037 47.124-10.647 65.822-2.149 3.761-4.418 5.548 0 5.548M1901.41491 318.7778c-2.18.136 52.123-20.109 81.046 16.043 16.643 20.805.037 47.124-10.647 65.822-2.149 3.761-4.418 5.548 0 5.548M672.59691 1352.9455c-2.18.136 52.123-20.109 81.046 16.043 16.643 20.805.037 47.124-10.647 65.822-2.149 3.761-4.418 5.548 0 5.548M87.60691 758.8505c-2.18.136 52.123-20.109 81.046 16.043 16.643 20.805.037 47.124-10.647 65.822-2.149 3.761-4.418 5.548 0 5.548M801.18691 64.3725c-2.18.136 52.123-20.109 81.046 16.043 16.643 20.805.037 47.124-10.647 65.822-2.149 3.761-4.418 5.548 0 5.548M1601.3 857.722c-26.86-30.22 101.84-103.764 134.04-104.624 6.85-.182 9.71-2.201 9.71 4.162M209.25091 1463.4095c-26.86-30.22 101.84-103.764 134.04-104.624 6.85-.182 9.71-2.201 9.71 4.162M1075.25691 1064.7425c-26.86-30.22 101.84-103.764 134.04-104.624 6.85-.182 9.71-2.201 9.71 4.162M856.804785 910.789713c37.546437 14.999117-44.61629 138.375379-73.02484 153.558729-6.04386 3.229148-7.697493 6.314835-10.54589.624983M496.807 1153.16c-5.077-12.95 71.85-10.44 88.295-3.67 22.115 9.11 42.229 31.34 55.754 50.28 1.713 2.4 3.476 11.1 8.323 11.1M1170.93 401.548c-.28.957-21.29-24.244-7.11-46.568 13.96-21.981 54.87-56.874 81.84-56.874M422.80891 279.6825c-.28.957-21.29-24.244-7.11-46.568 13.96-21.981 54.87-56.874 81.84-56.874M1539.91291 1428.9455c-.28.957-21.29-24.244-7.11-46.568 13.96-21.981 54.87-56.874 81.84-56.874M1771.79691 255.9855c-.28.957-21.29-24.244-7.11-46.568 13.96-21.981 54.87-56.874 81.84-56.874"/>
  <path fill="none" stroke="#8e8b47" stroke-linecap="round" stroke-miterlimit="1.5" stroke-width="12.8" d="M1042.64 1228.4c-2.51-1.45.17-4.46-3.8-5.78-12.38-4.13-59.382 8.92-59.382 27.83 0 5.16 19.71 6.71 23.542 8.01 17.15 5.83 40.72-.92 45.68 23.9.91 4.54-13.9 6.65-16.16 7.02-17.97 3-50.368-.06-61.85 18.98-8.777 14.55 36.31 12.98 42.17 20.38 10.18 12.84-17.571 14.64-17.571 17.57M152.86691 400.2605c-2.51-1.45.17-4.46-3.8-5.78-12.38-4.13-59.382 8.92-59.382 27.83 0 5.16 19.71 6.71 23.542 8.01 17.15 5.83 40.72-.92 45.68 23.9.91 4.54-13.9 6.65-16.16 7.02-17.97 3-50.368-.06-61.85 18.98-8.777 14.55 36.31 12.98 42.17 20.38 10.18 12.84-17.571 14.64-17.571 17.57"/>
  <path fill="none" stroke="#000" stroke-linecap="round" stroke-miterlimit="1.5" stroke-width="12.8" d="M93.332 1318.13c4.157-1.58 8.047-4.68 12.495-4.68M443.271 1014.36c.002 0-10.036-12.02-14.652-7.41-4.891 4.89 2.877 15.87 8.323 16.65 10.5 1.5 20.035-.32 16.646-13.87-5.912-23.652-37.689 12.48-15.259 12.48M871.04 277.32c1.202-.3.813.043 1.474 1.366M122.91891 155.4545c1.202-.3.813.043 1.474 1.366M1471.90691 131.7575c1.202-.3.813.043 1.474 1.366M1638.25 623.631c1.39-.801-4.22-2.405-4.85-2.261-4.28.988-11.4 7.177-10.41 12.124 1.15 5.743 21.42.489 16.88-7.451-5.32-9.309-17.8 7.539-9.7 6.83M890.12891 501.7655c1.39-.801-4.22-2.405-4.85-2.261-4.28.988-11.4 7.177-10.41 12.124 1.15 5.743 21.42.489 16.88-7.451-5.32-9.309-17.8 7.539-9.7 6.83M1373.09 932.185c-.05.185 5.97-9.415-1.59-5.094-10.16 5.807.02 26.648 11.43 8.388 2.86-4.57 1.73-9.925-3.82-11.312-9.32-2.329-12.94 27.822-2.27 13.599M1027.538859 742.046022c-.038105-.187811-1.123803 11.091448 3.702121 3.843337 6.48566-9.740796-11.946861-23.819928-13.975697-2.383986-.511677 5.366815 2.895945 9.64946 8.479695 8.40527 9.376605-2.089486-.883453-30.671274-4.057737-13.176514M1761.16 988.643c-3.43-1.828 2.31-10.968-2.55-12.587-7.05-2.35-14.48 17.377-14.48 21.858 0 3.406 2.97 4.076 5.8 4.186 8.22.3 10.99-10.994 5.21-5.21M1140.43391 123.4485c-3.43-1.828 2.31-10.968-2.55-12.587-7.05-2.35-14.48 17.377-14.48 21.858 0 3.406 2.97 4.076 5.8 4.186 8.22.3 10.99-10.994 5.21-5.21M655.249749 865.280306c3.88544.099174 2.844202 10.841755 7.914803 10.1139 7.356151-1.05454 5.169332-22.020641 3.163413-26.027592-1.524696-3.045675-4.480422-2.315275-7.060275-1.146788-7.484693 3.41142-4.905893 14.750607-2.326573 6.991085M653.662 1060.5c2.072 1.7-2.713-18.52-2.713-8.05M598.865 1291.83c0 2.84-3.505-4.47-5.208-6.74M1228.06 1257.28c-24.02.93-3.27 37.79 9.71 17.39 19.06-29.95-42.91-9.01-24.31 8.68 6.69 6.37 14.29-8.14 15.63-12.15"/>
  <path fill="none" stroke="#000" stroke-linecap="round" stroke-miterlimit="1.5" stroke-width="15.03" d="M1228.06 1257.28c-24.02.93-3.27 37.79 9.71 17.39 19.06-29.95-42.91-9.01-24.31 8.68 6.69 6.37 14.29-8.14 15.63-12.15" transform="matrix(.85173 0 0 .85216 -657.62609 -597.1265)"/>
  <path fill="none" stroke="#000" stroke-linecap="round" stroke-miterlimit="1.5" stroke-width="12.8" d="M1363.62 214.332c2.61-.401.23-7.959-4.82-7.329-10.04 1.256-18.21 18.829-10.1 26.929 9.22 9.198 34.24-7.271 25.81-19.075-10.62-14.87-39.78 6.07-24.01 18.682 5.85 4.681 22.13-6.547 18.4-13.071-5.38-9.416-15.26-.634-11.22 6.171 2.7 4.538 13.16-4.112 11.22-8.415-4.83-10.696-16.79.619-13.12 7.953 3.66 7.331 16.87-5.104 14.8-11.32-3.67-11.026-17.47-7.273-20.19 2.245M615.49891 92.4665c2.61-.401.23-7.959-4.82-7.329-10.04 1.256-18.21 18.829-10.1 26.929 9.22 9.198 34.24-7.271 25.81-19.075-10.62-14.87-39.78 6.07-24.01 18.682 5.85 4.681 22.13-6.547 18.4-13.071-5.38-9.416-15.26-.634-11.22 6.171 2.7 4.538 13.16-4.112 11.22-8.415-4.83-10.696-16.79.619-13.12 7.953 3.66 7.331 16.87-5.104 14.8-11.32-3.67-11.026-17.47-7.273-20.19 2.245M1964.48691 68.7695c2.61-.401.23-7.959-4.82-7.329-10.04 1.256-18.21 18.829-10.1 26.929 9.22 9.198 34.24-7.271 25.81-19.075-10.62-14.87-39.78 6.07-24.01 18.682 5.85 4.681 22.13-6.547 18.4-13.071-5.38-9.416-15.26-.634-11.22 6.171 2.7 4.538 13.16-4.112 11.22-8.415-4.83-10.696-16.79.619-13.12 7.953 3.66 7.331 16.87-5.104 14.8-11.32-3.67-11.026-17.47-7.273-20.19 2.245M1378.51 681.324c-4.45 1.222-3.04-.112-7.04-4.115M1744.86391 442.2558c2.688.56-2.778-4.741-4.301-7.025M236.536 886.909c1.872-2.085 1.222-.908-3.93-.908M915.702 1148.27c.538 2.64.222-1.26.222-3.65M1016.47 442.652c-.3-.111-.6-.222-.89-.334M268.34891 320.7865c-.3-.111-.6-.222-.89-.334M1617.33691 297.0895c-.3-.111-.6-.222-.89-.334M1949.22 1102.01c.39-1.05 1.27-3.53 1.76-4.5.49-.96 2.94-1.92 2.94-3.13M1653.76 1220.76c1.13 1.01 1.94 2.93 3.45 2.93M1337.06 1436.56c2.53-.76 2.43-.99 4.14-.99"/>
</svg>
