<svg xmlns="http://www.w3.org/2000/svg" fill-rule="evenodd" stroke-linejoin="round" stroke-miterlimit="2" clip-rule="evenodd" viewBox="0 0 1587 1536">
  <defs/>
  <path fill="#8666B3" d="M1522.75 20.86l4.72 1.43 4.33 2.32 3.81 3.13 3.14 3.8 2.32 4.35 1.43 4.72.49 4.9v1447.9l-.5 4.9-1.42 4.71-2.32 4.34-3.14 3.8-3.8 3.14-4.34 2.32-4.72 1.43-4.91.48H71.2l-4.9-.48-4.72-1.43-4.34-2.32-3.81-3.13-3.13-3.8-2.32-4.35-1.43-4.71-.48-4.9V45.5l.48-4.9 1.43-4.72 2.32-4.34 3.13-3.81 3.8-3.13 4.35-2.32 4.72-1.43 4.9-.48h1446.64l4.91.48zM96.34 70.65v1397.61H1492.7V70.65H96.34z"/>
  <path fill="#8666B3" d="M1270.14 736.26h35.14l10.91.01h10.53l10.15.01h9.77l9.42.01 9.06.01h8.69l8.36.02h8.02l7.7.02h7.35l7.05.02h6.74l6.43.02 6.14.01 5.85.01 5.56.01 5.3.02 5.03.01 4.76.01 4.5.02h4.27l4.03.02 3.78.02 3.57.01 3.35.01 3.13.02 2.93.01 2.72.01 2.55.02 2.35.01 2.18.01 2.02.02 1.84.01 1.69.01 1.55.02h1.4l1.26.02 1.15.01 1.02.01.9.01.82.01.71.01.62.01.53.01.49.01h.4l.36.02h.3l.3.01.28.02.32.01.4.02.7.05.48.06 3.36.6 4.64 1.65 4.22 2.53 3.66 3.31 2.94 3.96 2.11 4.45 1.2 4.78.25 4.92-.73 4.88-1.65 4.64-2.53 4.22-3.32 3.66-3.96 2.93-4.44 2.11-4.79 1.2-4.9.24h.05-.38l-.28-.01h-.37l-.46-.01-.55-.01-.64-.01-.75-.01-.85-.01-.98-.01-1.1-.01-1.24-.01-1.38-.02h-1.5l-1.67-.02-1.83-.01-1.98-.02-2.17-.01-2.32-.01-2.53-.02-2.72-.01-2.91-.01-3.12-.02-3.33-.01-3.56-.01-3.77-.02-4.01-.01-4.25-.01-4.51-.02-4.75-.01-5.01-.01-5.29-.02h-5.56l-5.85-.02-6.12-.01-6.43-.01-6.73-.01-7.04-.01-7.35-.01-7.7-.01-8-.01-8.35-.01h-8.7l-9.05-.02h-19.18l-10.14-.01h-10.52l-10.92-.01H1203.2l-4.9-.48-4.72-1.43-4.34-2.32-3.81-3.13-3.13-3.8-2.32-4.35-1.43-4.72-.49-4.9.48-4.9 1.43-4.72 2.32-4.35 3.13-3.8 3.8-3.13 4.35-2.33 4.72-1.43 4.9-.48h66.95zm239.7 50.48l2.14.24.65.04.28.02h.12l-4.86-.72 1.66.42zM153.72 734.8l12.15.01h11.75l11.35.01 10.94.01h10.56l10.18.02 9.82.01 9.43.01 9.08.02 8.73.02 8.39.01 8.04.02 7.72.02 7.39.02 7.07.02 6.76.02 6.45.03 6.17.02 5.86.02 5.6.03 5.3.02 5.05.03 4.77.02 4.54.03 4.28.03 4.03.03 3.81.02 3.59.03 3.36.03 3.15.03 2.94.02 2.75.03 2.56.03 2.36.02 2.2.03 2.03.03 1.86.02 1.72.03 1.56.02 1.42.03 1.3.02 1.15.03 1.06.02.93.02.84.02.74.02.67.02.58.02.52.02.47.02.43.02.42.03.41.02.45.04.55.05.77.08 1.16.17.7.15 2.99.8 4.49 2.03 4 2.86 3.39 3.59 2.6 4.18 1.76 4.6.8 4.86-.14 4.93-1.12 4.8-2.02 4.5-2.86 4-3.6 3.38-4.17 2.6-4.61 1.75-4.86.82-4.92-.15-4.8-1.11 1.46.49 2.2.45 1.1.16.66.08.37.03.2.02h.09-.15l-.23-.02h-.3l-.42-.02-.51-.02-.62-.02-.73-.01-.84-.02-.95-.02-1.09-.03-1.22-.02-1.35-.02-1.5-.03-1.67-.02-1.81-.03-1.99-.02-2.16-.03-2.33-.03-2.52-.02-2.71-.03-2.91-.03-3.13-.02-3.34-.03-3.55-.03-3.78-.03-4.01-.02-4.27-.03-4.5-.03-4.77-.02-5.03-.03-5.28-.02-5.58-.03-5.85-.02-6.16-.03-6.44-.02-6.74-.02-7.06-.02-7.38-.02-7.7-.02-8.03-.02-8.37-.02-8.72-.01-9.07-.02h-9.43l-9.8-.02-10.17-.01-10.56-.01h-10.94l-11.34-.01h-11.73l-12.16-.01H100.9l-14.3.01-4.9-.48-4.72-1.43-4.34-2.32-3.81-3.12-3.13-3.8-2.33-4.35-1.43-4.72-.49-4.9.49-4.9 1.42-4.72 2.32-4.35 3.13-3.8 3.8-3.13 4.35-2.33 4.71-1.43 4.9-.49h28.17l13.42-.01h25.57z"/>
  <g>
    <path fill="#8666B3" d="M1192.48 333.44l4.72 1.43 4.33 2.32 3.81 3.12 3.14 3.81 2.32 4.35 1.42 4.71.48 4.9v790.53l-.48 4.9-1.42 4.73-2.32 4.33-3.14 3.82-3.8 3.13-4.34 2.32-4.72 1.42-4.92.49h-774.2l-4.9-.49-4.72-1.42-4.35-2.32-3.8-3.13-3.13-3.82-2.32-4.33-1.43-4.73-.49-4.9V358.1l.49-4.9 1.43-4.72 2.32-4.35 3.13-3.8 3.8-3.13 4.35-2.32 4.72-1.43 4.9-.49h774.2l4.92.49zm-753.99 49.78v740.26h723.94V383.22H438.49z"/>
    <path fill="#8666B3" d="M731.3 728.06l3.66 1.27 3.27 2.07 2.71 2.76 2.02 3.3.04.1.11.24.16.36.2.43.11.27.12.28.12.3.14.31.14.34.14.35.15.37.15.38.15.4.16.42.16.44.15.42.1.25.07.24.08.24.08.24.09.25.08.25.08.26.08.26.08.27.08.27.08.29.08.29.08.3.08.3.07.31.08.33.07.33.07.35.08.37.06.37.07.4.06.42.06.44.04.38.07.66.05.57.06.57.05.58.1 1.14.1 1.14.1 1.14.1 1.15.1 1.14.08 1.14.1 1.14.08 1.14.08 1.14.08 1.14.07 1.14.08 1.14.07 1.14.06 1.13.07 1.14.06 1.14.07 1.13.05 1.14.06 1.14.05 1.13.06 1.13.04 1.14.05 1.13.05 1.13.04 1.13.04 1.14.04 1.13.04 1.13.04 1.13.03 1.13.03 1.12.03 1.13.03 1.13.03 1.13.02 1.12.03 1.13.02 1.12.02 1.13.02 1.12.02 1.12.02 1.13.01 1.12.02 1.12.01 1.12.01 1.12.01 1.12.02 1.11v1.12l.01 1.12.01 1.12v1.11l.01 1.12.01 2.22v2.22l.01 2.23v8.94l-.01 1.13-.01 1.13-.01 1.13-.01 1.12-.02 1.13-.01 1.12-.02 1.13-.01 1.13-.02 1.12-.02 1.12-.02 1.13-.03 1.12-.02 1.12-.03 1.13-.02 1.12-.03 1.12-.03 1.12-.03 1.12-.03 1.12-.03 1.12-.04 1.12-.03 1.12-.04 1.12-.04 1.12-.03 1.12-.04 1.12-.04 1.11-.04 1.12-.05 1.12-.04 1.11-.04 1.12-.05 1.11-.04 1.12-.05 1.11-.05 1.12-.05 1.11-.05 1.12-.05 1.1-.05 1.12-.05 1.12-.1 2.22-.11 2.22-.11 2.22-.12 2.22-.11 2.22-.12 2.22-.12 2.21-.12 2.22-.13 2.21-.12 2.22-.13 2.2-.13 2.22-.12 2.2-.13 2.21-.27 4.41-.26 4.41-.53 8.8-.26 4.4-.13 2.2-.13 2.19-.13 2.19-.12 2.2-.13 2.18-.12 2.2-.12 2.18-.13 2.2-.11 2.18-.12 2.19-.11 2.18-.12 2.19-.1 2.19-.11 2.18-.1 2.19-.06 1.08-.05 1.1-.04 1.09-.05 1.09-.05 1.09-.05 1.1-.1 2.42-.1 2.43-.11 2.43-.11 2.43-.22 4.88-.21 4.88-.11 2.44-.1 2.44-.11 2.44-.1 2.44-.11 2.44-.1 2.44-.1 2.44-.04 1.21-.05 1.22-.05 1.21-.04 1.22-.05 1.21-.04 1.22-.04 1.2-.04 1.22-.04 1.2-.04 1.22-.04 1.2-.04 1.21-.03 1.21-.04 1.2-.03 1.2-.03 1.21-.03 1.2-.03 1.2-.03 1.2-.02 1.2-.03 1.19-.02 1.2-.02 1.18-.02 1.2-.02 1.18-.01 1.19-.02 1.18-.01 1.18-.01 1.18-.01 1.18v1.18l-.01 1.17v2.73l-.01.41v.02l1.55 3.1.9 3.97-.08 4.08-1.05 3.94-.1.24-.13.32-.14.33-.15.34-.15.34-.16.35-.18.35-.2.38-.2.39-.23.4-.25.43-.28.46-.32.47-.32.46-.24.32-.21.28-.23.28-.25.3-.27.32-.3.32-.3.32-.34.33-.4.38-.4.35-.43.36-.5.4-.54.38-.57.38-.65.4-.68.37-.73.35-.86.37-.88.32-.92.28-.98.24-1.04.19-1.14.13-1.13.05-1.11-.02-1.13-.09-1.17-.17-1.11-.25-1.03-.3-1.04-.37-.98-.43-.9-.45-.83-.48-.76-.5-.71-.52-.65-.52-.57-.5-.52-.51-.46-.49-.43-.48-.4-.48-.34-.44-.31-.44-.34-.5-.42-.67-.4-.7-.33-.67-.27-.6-.23-.55-.2-.5-.17-.47-.14-.45-.13-.42-.11-.38-.1-.37-.08-.34-.08-.33-.07-.32-.06-.3-.06-.3-.05-.28-.04-.27-.05-.27-.04-.26-.03-.25-.04-.25-.03-.23-.03-.24-.03-.24-.02-.25-.05-.43-.04-.43-.03-.43-.03-.43-.03-.42-.02-.4-.02-.41-.02-.4-.02-.4-.01-.39-.02-.38v-.39l-.01-.37-.01-.37v-.36l-.01-.36v-.36l-.01-.66v-4.58l.01-1.23v-1.23l.01-1.23.01-1.23.01-1.23.02-1.24.01-1.23.02-1.23.02-1.24.02-1.24.02-1.23.02-1.24.03-1.24.03-1.23.02-1.24.03-1.24.04-1.24.03-1.24.03-1.24.04-1.24.03-1.24.04-1.24.04-1.24.04-1.24.04-1.23.04-1.24.05-1.24.04-1.24.04-1.24.05-1.24.05-1.24.04-1.23.05-1.24.1-2.47.1-2.47.1-2.47.11-2.47.1-2.46.11-2.45.11-2.46.22-4.88.22-4.87.1-2.43.11-2.42.1-2.4.1-2.42.06-1.1.04-1.13.05-1.11.05-1.12.05-1.11.06-1.12.1-2.22.11-2.23.11-2.23.12-2.22.11-2.22.12-2.22.12-2.22.12-2.22.12-2.21.13-2.22.13-2.2.12-2.22.13-2.21.13-2.2.13-2.22.27-4.4.52-8.81.27-4.4.26-4.39.13-2.2.12-2.18.13-2.2.13-2.18.12-2.2.12-2.18.12-2.19.12-2.18.12-2.19.11-2.18.11-2.18.11-2.18.1-2.18.11-2.19.05-1.08.05-1.1.05-1.08.05-1.09.05-1.09.04-1.09.05-1.08.04-1.1.05-1.08.04-1.09.04-1.08.04-1.09.04-1.09.04-1.08.04-1.09.04-1.09.03-1.08.04-1.09.03-1.08.03-1.09.03-1.08.04-1.09.03-1.08.02-1.09.03-1.08.03-1.09.02-1.08.02-1.08.03-1.09.02-1.08.02-1.08.01-1.09.02-1.08.02-1.08v-1.09l.02-1.08.01-1.08.01-1.08.01-1.08v-1.09l.01-1.08v-1.08l.01-1.08v-7.65l-.01-2.19-.01-2.18v-1.1l-.02-1.08v-1.1l-.01-1.08-.01-1.09-.01-1.09-.01-1.08-.01-1.09-.02-1.09-.01-1.08-.02-1.09-.01-1.08-.02-1.08-.02-1.09-.02-1.08-.02-1.08-.02-1.08-.03-1.08-.02-1.08-.03-1.08-.03-1.08-.03-1.07-.03-1.08-.04-1.08-.03-1.07-.04-1.07-.04-1.08-.04-1.07-.05-1.07-.04-1.07-.05-1.08-.05-1.07-.05-1.06-.05-1.07-.06-1.07-.05-1.07-.06-1.06-.06-1.07-.07-1.06-.06-1.06-.07-1.07-.07-1.06-.08-1.06-.07-1.06-.08-1.06-.08-1.05-.05-.63-1.77-2.45-1.52-3.77-.57-4.04.4-4.05.32-.9-.15-.95.26-3.87 1.14-3.7 1.95-3.34 2.66-2.82 3.23-2.14 3.63-1.34 3.85-.48 3.85.4zm-20.08 315.75l-.14.24-.12.21-.1.17-.07.15-.05.12-.05.09-.02.04.67-1.22-.12.2zm12.79-309.48l-.83.19-.83.24-.3.1 2.13-.57-.17.04zm2.34-.3l-.75.05-.58.07 3.73-.07-.3-.03-.67-.04-.7-.01-.73.02z"/>
    <path fill="#8666B3" d="M848.16 548.72h.97l.48.01h.49l.48.02h.49l.49.02.49.02.49.01.49.02.49.02.49.03.5.02.49.03.49.03.5.03.5.04.49.04.5.04.5.04.5.04.5.05.5.05.5.05.5.06.5.05.5.06.5.07.51.06.5.07.52.08.5.07.5.08.52.08.5.09.51.08.51.1.51.09.51.1.51.1.51.1.52.1.5.12.52.11.51.12.5.12.3.07.3.08.28.07.3.07.28.07.29.08.28.08.29.07.29.08.28.08.28.08.29.08.28.08.29.08.28.09.28.08.28.09.28.08.28.09.29.09.28.09.27.09.28.09.28.09.28.1.28.08.27.1.3.1.53.18.55.2.55.2.54.2.55.2.54.2.54.21.54.22.53.21.53.22.54.22.53.22.52.23.53.23.53.23.52.23.52.24.52.23.51.24.52.25.51.24.51.25.51.25.5.25.51.25.5.26.5.25.5.26.5.26.5.27.5.26.49.27.49.26.49.27.49.27.48.28.48.27.49.28.48.28.47.28.48.28.47.28.48.28.47.28.47.29.46.29.47.28.46.3.46.28.46.3.46.29.46.3.45.29.45.29.45.3.45.3.45.3.45.29.44.3.44.3.44.3.44.3.44.3.43.3.43.3.43.31.43.3.43.31.43.3.42.3.42.31.42.31.42.3.42.31.41.3.41.32.42.3.4.3.41.31.4.31.41.3.4.31.4.31.4.3.4.31.39.3.4.31.38.31.4.3.38.3.38.31.38.3.39.31.38.3.75.6.74.61.74.6.73.6.72.59.7.59.71.58.7.58.69.58.69.58.54.46.55.47.54.47.54.47.54.47.54.48.53.47.53.48.53.48.53.48.52.49.52.48.51.49.51.48.51.5.5.48.51.5.5.49.5.5.5.5.48.5.5.49.48.5.48.5.48.51.47.5.48.51.47.51.46.51.47.51.46.52.46.51.45.52.45.51.45.52.45.52.44.53.44.52.44.52.43.53.43.53.43.53.43.52.42.54.42.53.41.53.42.54.4.53.41.54.4.54.4.54.4.54.4.54.4.55.38.54.39.55.38.55.38.55.38.55.38.55.37.55.36.55.36.56.37.56.36.55.35.56.35.56.36.56.35.56.34.56.34.57.34.56.34.57.33.57.32.56.34.57.32.57.32.57.31.58.33.57.3.57.31.58.3.57.31.58.3.58.3.58.3.58.28.58.3.58.28.58.28.59.28.58.27.59.29.58.26.59.27.59.26.59.26.58.26.6.27.59.25.59.25.6.24.58.25.6.25.6.24.59.23.6.23.6.23.6.23.59.23.6.22.6.22.6.22.6.21.6.21.6.2.61.22.6.2.61.2.6.2.61.2.6.18.62.19.6.19.61.18.61.18.6.18.62.17.61.17.61.17.61.18.62.16.6.16.62.16.62.15.61.15.62.15.61.15.62.14.61.16.62.14.62.13.61.13.62.14.62.12.62.13.62.12.62.12.62.12.62.12.62.12.62.1.62.1.62.12.62.1.63.1.62.1.62.1.62.08.63.1.62.08.63.08.62.08.62.08.63.09.62.07.63.08.63.07.62.06.63.07.62.06.63.06.63.05.62.06.63.05.63.05.63.05.62.04.63.04.63.04.63.04.63.03.62.03.63.03.63.03.63.02.63.03.63.02.63.01.63.02.63.01.62.01.63.01.63.01.63v3.15l-.02.63v.63l-.02.63-.02.63v.63l-.03.63-.02.63-.03.63-.02.63-.03.63-.03.63-.04.62-.03.63-.04.63-.04.63-.04.63-.05.63-.05.63-.05.63-.05.63-.05.63-.06.63-.05.62-.06.63-.07.63-.06.63-.07.63-.07.63-.07.62-.08.63-.08.63-.07.63-.08.62-.08.63-.09.63-.08.62-.09.63-.09.63-.1.62-.1.63-.08.62-.1.63-.1.62-.11.63-.1.62-.12.63-.1.62-.12.63-.1.62-.13.62-.11.63-.12.62-.12.62-.13.62-.12.63-.13.62-.14.62-.13.62-.13.62-.14.62-.14.62-.13.62-.15.62-.14.62-.15.62-.14.62-.16.62-.15.61-.16.62-.15.62-.16.62-.16.61-.16.62-.16.62-.17.61-.17.62-.17.61-.17.62-.17.61-.18.61-.17.62-.18.6-.19.62-.18.61-.19.61-.18.61-.2.61-.18.61-.2.61-.18.61-.2.61-.2.61-.2.6-.2.61-.21.61-.2.6-.2.61-.22.6-.2.61-.22.6-.22.61-.21.6-.22.6-.23.6-.22.61-.22.6-.22.6-.23.6-.22.6-.24.6-.23.6-.24.6-.23.6-.24.6-.23.59-.25.6-.25.59-.24.6-.24.59-.25.59-.26.6-.25.58-.25.6-.25.58-.26.6-.25.58-.27.6-.26.58-.26.59-.27.58-.26.59-.28.59-.27.58-.27.59-.27.58-.27.58-.29.58-.27.58-.28.59-.28.58-.28.57-.3.58-.28.58-.29.58-.28.57-.3.58-.29.58-.3.57-.3.57-.3.57-.29.58-.3.57-.3.57-.31.57-.3.57-.31.57-.31.56-.31.57-.31.57-.32.56-.31.56-.32.57-.32.56-.32.56-.32.56-.32.56-.33.56-.32.56-.33.56-.33.55-.33.56-.33.55-.34.56-.33.55-.34.55-.34.55-.34.56-.34.55-.34.54-.35.55-.34.55-.35.54-.35.55-.35.54-.35.55-.35.54-.36.54-.35.54-.36.54-.36.54-.36.54-.36.53-.36.54-.37.53-.36.54-.37.53-.37.53-.37.53-.37.53-.37.53-.38.53-.38.53-.37.52-.38.53-.38.52-.38.52-.38.52-.39.52-.38.52-.4.52-.38.52-.39.52-.39.51-.4.52-.39.5-.4.52-.39.51-.4.51-.4.51-.4.5-.4.51-.4.51-.4.5-.41.5-.4.5-.42.51-.4.5-.42.5-.4.5-.42.5-.42.49-.41.5-.42.48-.42.5-.42.49-.42.49-.42.48-.43.49-.42.49-.43.48-.43.48-.42.48-.44.49-.43.47-.43.48-.43.48-.44.48-.44.47-.43.47-.44.48-.44.47-.44.47-.45.46-.44.47-.44.47-.45.46-.45.46-.45.46-.45.47-.45.45-.45.46-.45.46-.46.45-.45.46-.46.45-.46.45-.46.45-.46.45-.46.44-.46.45-.47.44-.46.45-.47.44-.46.44-.47.44-.47.43-.47.44-.48.43-.47.44-.47.43-.48.43-.48.43-.47.42-.48.43-.48.42-.48.43-.48.42-.49.42-.48.41-.49.42-.48.42-.5.41-.48.41-.5.41-.48.41-.5.41-.49.4-.5.41-.49.4-.5.4-.49.4-.5.4-.5.4-.5.4-.5.39-.5.4-.5.38-.51.39-.5.39-.51.38-.51.39-.52.39-.25.19-.27.2-.27.2-.28.19-.27.2-.29.2-.28.2-.3.2-.29.2-.3.22-.3.2-.31.21-.32.22-.31.21-.33.22-.33.22-.33.22-.34.22-.35.23-.35.23-.35.23-.36.23-.37.24-.37.23-.37.24-.4.25-.76.49-.8.5-.82.5-.84.53-.85.52-.88.54-.9.54-.9.55-.94.56-.95.57-.97.57-.99.59-1 .58-1.02.6-1.03.6-1.06.6-1.06.62-1.08.61-1.1.63-1.1.62-1.13.64-1.14.63-1.15.64-1.16.64-1.17.65-1.19.65-1.19.65-.6.33-.61.33-.6.32-.62.33-.61.33-.62.33-.61.33-.62.33-.62.33-.63.33-.62.33-.37.2.17.22.24.3.23.3.23.3.23.31.23.3.23.32.23.3.22.32.23.31.22.32.22.32.22.32.22.32.22.32.22.32.21.33.22.32.2.32.22.33.2.32.21.32.2.32.2.33.2.32.2.32.21.32.2.32.2.33.2.32.19.32.2.33.19.32.2.32.19.33.19.32.2.33.18.32.2.33.37.65.37.65.37.65.37.65.36.66.36.65.36.66.35.65.35.66.35.66.35.66.34.65.34.66.34.66.33.66.33.66.33.66.33.66.32.66.33.66.32.67.31.66.32.66.3.66.32.66.3.67.32.66.3.66.3.66.3.67.3.66.3.66.29.66.3.67.28.66.3.66.28.66.28.66.29.67.28.66.28.66.28.66.28.66.28.66.27.66.28.66.27.66.27.65.27.66.28.66.53 1.31.53 1.31.53 1.31.53 1.3.52 1.3.52 1.3.52 1.3.51 1.3 1.02 2.57.52 1.28.5 1.28.51 1.27.51 1.27.51 1.26.5 1.26.52 1.25.25.63.26.62.25.62.26.62.26.62.25.61.26.62.26.61.25.62.26.6.26.62.26.6.26.6.26.61.26.6.26.6.26.6.27.6.26.6.26.59.27.59.26.59.27.59.27.58.27.59.27.58.27.58.27.58.27.57.28.58.27.57.28.57.27.56.28.57.28.56.28.56.28.56.29.56.28.55.29.55.28.55.3.55.28.55.3.54.29.54.3.54.29.53.3.53.3.53.3.53.3.53.15.26.15.26.15.26.15.26.16.26.15.26.16.26.15.26.15.25.16.26.16.25.15.26.16.25.16.25.15.26.16.25.16.25.16.25.16.25.16.25.16.25.16.25.16.25.16.25.17.24.16.25.16.24.17.25.16.24.17.24.16.25.17.24.16.24.17.24.17.24.16.24.17.24.17.23.17.24.17.24.17.23.17.24.17.23.18.24.17.23.17.23.18.23.17.23.18.23.17.23.18.23.17.23.18.23.18.22.18.23.18.23.18.22.18.23.18.22.18.22.18.22.18.22.18.22.19.22.18.22.19.22.18.22.2.22.18.21.19.22.18.22.2.21.18.21.2.22.18.2.2.22.19.21.2.21.18.21.2.21.2.21.19.2.2.21.2.21.2.2.19.21.2.2.2.2.2.21.2.2.2.2.2.2.21.2.2.2.21.2.21.2.2.2.21.2.21.2.21.2.21.19.21.19.22.2.2.18.22.2.22.19.21.19.22.2.21.18.22.19.22.19.22.18.22.2.22.18.22.18.23.19.22.18.23.19.22.18.23.18.23.18.23.18.23.18.23.18.23.18.23.18.24.18.23.17.24.18.23.18.24.17.24.17.24.18.24.17.24.17.25.18.24.17.25.17.24.17.25.17.25.16.25.17.25.17.25.17.25.16.25.17.26.16.25.16.26.17.26.16.26.16.26.16.26.16.27.16.26.16.26.16.27.16.27.15.27.16.27.16.27.15.28.15.27.16.28.15.27.15.28.16.28.15.28.15.28.15.29.15.28.14.29.15.28.15.3.14.28.15.3.14.29.15.3.14.29.14.3.14.3.15.3.14.3.13.3.14.3.14.31.14.3.14.32.13.3.14.32.13.3.13.33.14.31.13.32.13.32.13.32.13.32.13.33.13.32.13.33.12.33.13.33.12.33.13.33.12.34.13.33.12.34.12.34.12.35.12.34.12.35.12.34.11.35.12.35.12.35.11.35.11.36.12.36.11.36.11.36.11.36.11.36.11.38.11.38.11.37.1.37.11.37.1.37.1.37.1.36.1.36.09.36.09.36.08.36.09.36.08.35.08.35.08.35.08.35.07.34.07.35.07.34.07.34.06.34.06.33.06.33.06.34.06.33.05.33.06.33.05.32.04.32.05.32.04.33.05.3.04.33.03.31.04.32.03.3.04.31.03.31.02.3.03.3.02.3.03.31.02.3.02.3.01.29.02.29.01.3.02h.28l.29.01.28.01h.29l.28.01H965.5l.27-.01.28-.01.27-.01.26-.01.27-.02.26-.01.27-.02.26-.01.26-.02.25-.02.26-.02.26-.03.25-.02.25-.03.25-.02.24-.03.25-.03.26-.03.24-.04.24-.03.23-.03.24-.04.25-.04.24-.04.23-.04.23-.04.23-.04.23-.05.24-.04.23-.05.22-.05.23-.05.22-.05.22-.05.24-.05.2-.06.23-.05.22-.06.21-.06.22-.06.21-.06.22-.06.2-.06.22-.06.21-.07.2-.06.21-.07.22-.07.2-.07.2-.07.2-.06.2-.08.21-.07.2-.08.2-.07.2-.08.19-.07.2-.08.2-.08.18-.08.2-.08.19-.09.19-.08.19-.08.19-.09.18-.08.2-.1.18-.08.18-.09.19-.1.18-.08.18-.1.18-.09.18-.1.18-.09.18-.1.19-.1.17-.1.18-.1.17-.1.18-.1.17-.1.17-.1.17-.1.18-.1.17-.12.17-.1.17-.11.17-.11.16-.11.17-.11.16-.11.17-.11.17-.12.16-.11.16-.12.17-.12.15-.11.16-.12.16-.12.16-.12.17-.12.16-.13.15-.12.16-.13.15-.12.16-.13.15-.12.15-.13.15-.13.17-.13.14-.13.16-.13.14-.14.15-.13.15-.14.15-.13.14-.14.15-.13.15-.14.15-.14.14-.14.15-.14.14-.14.14-.15.14-.14.14-.14.14-.15.15-.15.14-.14.13-.15.14-.15.14-.15.13-.15.14-.15.13-.15.14-.16.13-.15.14-.15.13-.16.13-.16.13-.15.13-.16.13-.16.13-.16.12-.16.13-.16.12-.16.13-.16.13-.17.13-.16.12-.17.12-.16.12-.17.12-.17.12-.16.12-.17.12-.18.12-.16.11-.17.12-.18.12-.17.12-.17.1-.18.13-.17.1-.18.12-.17.11-.18.11-.17.11-.18.11-.18.1-.18.11-.18.12-.18.1-.18.1-.18.1-.18.1-.19.1-.18.12-.18.1-.19.1-.18.1-.19.1-.18.1-.19.1-.18.09-.2.1-.18.09-.19.1-.19.09-.19.09-.19.09-.19.09-.19.09-.19.1-.19.08-.19.08-.2.1-.19.07-.19.1-.2.07-.19.09-.19.08-.2.09-.19.08-.2.07-.19.08-.2.08-.19.08-.2.07-.2.08-.19.07-.2.07-.2.08-.2.07-.19.07-.2.07-.2.07-.2.06-.19.08-.2.07-.2.06-.2.07-.2.06-.2.06-.2.06-.2.06-.2.06-.19.06-.2.06-.2.06-.2.06-.2.05-.2.06-.2.05-.2.05-.2.05-.2.06-.2.05-.2.04-.2.05-.19.05-.2.05-.2.05-.2.05-.2.04-.2.05-.2.04-.19.04-.2.04-.2.04-.2.04-.19.04-.2.03-.2.04-.19.03-.2.04-.2.03-.19.03-.19.03-.2.04-.2.03-.19.03-.19.02-.2.03-.19.03-.19.02-.19.03-.2.02-.18.02-.2.03-.18.02-.2.02-.18.02-.2.02-.18.01-.19.02-.19.02-.18.01-.19.02-.18.01-.19.01-.18.01-.18.01-.18.01-.19.01-.18.01-.18.01-.18.01-.18v-.18l.01-.18v-.17l.01-.18V994.95l-.02-.17v-.49l-.02-.16v-.16l-.02-.17v-.15l-.02-.16v-.16l-.02-.16-.02-.15v-.15l-.02-.16-.02-.15v-.15l-.03-.15v-.14l-.03-.15-.02-.14-.02-.15-.02-.14-.02-.14-.02-.14-.02-.14-.02-.14-.02-.13-.02-.14-.02-.13-.03-.13-.02-.13-.02-.13-.03-.13-.02-.12-.03-.13-.03-.12-.02-.12-.03-.12-.03-.12-.02-.12-.03-.11-.03-.11-.03-.12-.03-.1-.02-.11-.03-.1-.03-.11-.03-.1-.03-.11-.03-.1-.03-.1-.03-.1-.03-.09-.03-.09-.03-.09-.03-.09-.04-.09-.03-.08-.04-.08-.03-.09-.03-.08-.03-.07-.03-.08-.03-.07-.03-.07-.03-.08-.03-.07-.03-.06-.02-.06-.03-.07-.03-.06-.03-.06-.03-.05-.02-.06-.03-.05-.03-.05-.02-.05-.03-.05-.02-.04-.03-.04-.02-.05-.02-.04-.02-.03-.03-.04-.02-.03-.02-.03-.01-.03-2.74-1.16-3.25-2.44-2.6-3.15-1.75-3.68-.81-4 .15-4.06 1.13-3.92 2.03-3.53 2.82-2.94 3.44-2.19 3.87-1.3 4.06-.33 4.01.65.28.08.37.1.37.13.37.12.37.12.36.14.36.13.37.14.36.15.35.15.35.15.36.16.35.16.34.16.34.17.35.18.34.17.33.19.33.18.33.19.33.2.32.19.31.2.32.2.32.2.3.22.31.21.3.22.3.22.3.22.29.22.3.23.27.23.29.24.28.23.28.24.26.24.27.25.28.24.25.25.26.25.25.25.25.25.26.26.24.25.24.26.24.26.23.27.23.26.23.27.22.26.22.27.22.27.21.28.21.27.21.27.2.28.2.28.2.27.2.28.2.28.18.29.18.28.19.28.18.28.18.29.17.29.17.28.17.29.17.29.16.29.16.29.16.29.16.3.15.28.15.3.14.29.14.3.15.3.14.29.14.29.13.3.14.3.12.3.13.29.13.3.12.3.12.3.11.3.12.3.11.3.12.3.1.31.12.3.1.3.1.31.1.3.1.31.1.3.1.31.08.31.1.3.08.31.1.31.07.3.09.32.08.3.08.31.08.32.07.3.08.32.07.3.07.32.06.31.07.31.06.31.07.32.06.31.06.31.05.32.06.31.05.32.05.31.05.32.05.31.05.32.04.31.06.32.04.32.04.32.04.32.04.31.03.32.04.32.03.32.03.32.03.32.03.32.02.32.03.32.02.32.02.32.02.33.02.32.02.32v.32l.03.33v.32l.02.32v.33l.02.32V997.62l-.01.33-.01.33-.01.32-.02.33-.01.33-.02.33-.01.33-.02.32-.02.33-.02.34-.03.32-.02.33-.02.33-.03.33-.03.34-.03.33-.03.33-.03.33-.04.33-.03.33-.04.33-.04.33-.04.34-.05.33-.04.33-.05.33-.04.34-.05.33-.05.33-.05.33-.05.34-.05.33-.06.33-.05.34-.06.33-.06.33-.06.34-.06.33-.06.34-.06.33-.07.33-.07.34-.07.33-.06.33-.08.34-.07.33-.07.34-.09.33-.08.34-.07.33-.08.33-.09.34-.08.33-.08.34-.09.33-.09.34-.08.33-.1.33-.1.34-.08.33-.1.34-.1.33-.1.34-.1.33-.1.33-.1.34-.1.33-.1.33-.11.34-.11.33-.11.33-.11.34-.11.33-.12.33-.11.33-.13.34-.12.33-.12.33-.12.33-.12.33-.13.34-.12.33-.13.33-.13.33-.13.33-.13.33-.15.33-.13.33-.14.33-.14.33-.14.33-.14.33-.14.32-.14.33-.15.33-.15.33-.16.32-.15.33-.15.33-.15.32-.16.33-.16.32-.15.33-.17.32-.17.33-.16.32-.17.32-.16.33-.17.32-.17.32-.17.32-.18.32-.17.32-.19.32-.18.32-.18.32-.18.32-.18.32-.2.32-.17.31-.2.32-.19.32-.19.31-.19.32-.2.3-.2.32-.2.32-.2.3-.2.32-.2.3-.22.32-.2.3-.21.32-.21.3-.22.31-.22.3-.2.31-.23.3-.22.31-.22.3-.23.31-.22.3-.23.3-.23.3-.23.3-.23.3-.24.3-.24.3-.24.29-.23.3-.24.29-.24.3-.26.28-.24.3-.25.28-.25.3-.25.28-.26.29-.26.29-.26.28-.25.28-.26.29-.27.28-.27.28-.27.28-.26.28-.27.27-.27.28-.28.28-.28.27-.28.27-.27.27-.28.27-.3.27-.28.27-.3.27-.28.26-.29.26-.29.27-.3.26-.3.26-.3.25-.3.26-.3.26-.3.25-.31.25-.3.25-.32.25-.3.25-.32.25-.32.24-.32.25-.32.24-.32.24-.32.24-.33.23-.33.24-.32.23-.33.24-.34.22-.33.23-.34.23-.33.23-.35.22-.34.22-.34.22-.34.22-.36.21-.34.22-.35.21-.35.21-.37.21-.35.2-.36.21-.35.2-.37.2-.36.2-.37.2-.36.2-.37.2-.37.18-.37.2-.37.18-.39.18-.37.19-.38.18-.39.17-.37.18-.4.18-.37.17-.4.17-.38.16-.4.17-.39.16-.39.16-.4.16-.4.16-.4.15-.39.15-.4.15-.4.15-.4.14-.42.15-.41.14-.4.13-.42.14-.41.13-.43.13-.41.13-.41.12-.43.13-.42.12-.42.12-.42.11-.43.11-.42.11-.43.11-.44.1-.43.11-.42.1-.44.1-.44.1-.43.09-.45.09-.43.08-.44.09-.45.08-.44.08-.44.07-.45.08-.45.07-.44.07-.46.06-.45.07-.45.06-.45.06-.46.05-.45.05-.46.05-.46.05-.45.04-.47.05-.46.03-.46.04-.47.03-.46.03-.47.03-.47.03-.47.02-.47.02-.47.02-.47.01-.47.01h-.48l-.47.02h-1.44l-.47-.01-.49-.01-.48-.01-.48-.02-.49-.01-.48-.02-.48-.02-.5-.03-.48-.03-.5-.03-.48-.03-.5-.04-.49-.04-.49-.04-.5-.05-.49-.05-.5-.05-.49-.05-.5-.06-.5-.06-.5-.06-.5-.07-.5-.07-.5-.07-.5-.07-.51-.08-.5-.08-.51-.08-.5-.09-.52-.09-.5-.09-.52-.1-.51-.1-.51-.1-.51-.1-.52-.1-.51-.1-.52-.12-.52-.12-.51-.11-.52-.13-.52-.12-.52-.13-.52-.13-.53-.13-.52-.13-.52-.14-.53-.14-.52-.15-.53-.15-.53-.15-.53-.15-.52-.15-.48-.15-.48-.14-.47-.15-.47-.14-.48-.15-.46-.15-.47-.15-.47-.15-.46-.16-.46-.15-.47-.16-.46-.16-.45-.15-.46-.17-.46-.16-.45-.16-.45-.16-.45-.17-.45-.17-.45-.16-.45-.17-.44-.17-.45-.18-.44-.17-.44-.17-.44-.18-.43-.18-.44-.17-.44-.18-.43-.18-.43-.19-.43-.18-.43-.18-.42-.2-.43-.18-.42-.19-.43-.19-.42-.19-.42-.19-.42-.2-.41-.19-.42-.2-.41-.2-.41-.19-.41-.2-.41-.2-.4-.2-.42-.2-.4-.2-.4-.22-.4-.2-.4-.21-.4-.21-.4-.2-.4-.22-.4-.22-.39-.21-.39-.21-.39-.22-.39-.22-.38-.22-.4-.22-.37-.22-.39-.22-.38-.22-.38-.23-.37-.22-.38-.23-.38-.23-.37-.23-.38-.23-.37-.23-.37-.23-.36-.23-.37-.24-.37-.23-.36-.24-.36-.24-.36-.24-.36-.24-.36-.24-.36-.24-.35-.24-.36-.25-.35-.24-.35-.25-.35-.24-.35-.25-.35-.25-.34-.25-.35-.25-.34-.26-.34-.25-.34-.25-.34-.26-.33-.25-.34-.26-.33-.26-.33-.26-.34-.26-.33-.26-.32-.26-.33-.26-.33-.26-.32-.27-.32-.26-.32-.27-.33-.27-.31-.26-.32-.27-.32-.27-.31-.27-.31-.27-.32-.28-.3-.27-.31-.27-.31-.28-.3-.27-.31-.28-.3-.28-.3-.27-.31-.28-.3-.28-.3-.28-.3-.28-.29-.28-.3-.29-.28-.28-.3-.28-.29-.29-.29-.29-.28-.28-.29-.29-.28-.29-.29-.28-.28-.3-.28-.28-.28-.3-.28-.28-.27-.3-.28-.29-.28-.3-.27-.28-.27-.3-.27-.3-.27-.29-.27-.3-.26-.3-.27-.3-.27-.29-.26-.3-.26-.3-.26-.3-.26-.3-.26-.3-.26-.3-.25-.3-.26-.3-.25-.3-.25-.31-.25-.3-.25-.3-.25-.31-.25-.31-.24-.3-.25-.31-.24-.31-.25-.3-.24-.32-.24-.3-.24-.32-.24-.3-.23-.31-.24-.32-.23-.3-.24-.32-.23-.3-.23-.32-.23-.32-.23-.3-.23-.32-.23-.32-.22-.31-.23-.31-.22-.32-.22-.32-.23-.31-.22-.32-.22-.32-.22-.31-.21-.32-.22-.32-.22-.32-.21-.31-.22-.32-.2-.32-.22-.32-.21-.32-.2-.32-.22-.32-.2-.32-.21-.32-.21-.33-.2-.32-.2-.32-.21-.32-.2-.32-.2-.33-.2-.32-.2-.32-.2-.33-.2-.32-.2-.32-.2-.33-.19-.32-.2-.33-.19-.32-.19-.33-.19-.33-.19-.32-.19-.33-.2-.33-.36-.65-.38-.65-.36-.65-.37-.66-.36-.66-.36-.65-.36-.66-.35-.66-.35-.66-.35-.65-.34-.66-.35-.66-.33-.66-.34-.67-.33-.66-.34-.66-.32-.66-.33-.66-.32-.67-.32-.66-.32-.66-.32-.66-.31-.67-.32-.66-.3-.66-.31-.67-.3-.66-.31-.66-.3-.67-.3-.66-.3-.67-.3-.66-.29-.66-.3-.67-.28-.66-.3-.66-.28-.66-.28-.67-.29-.66-.28-.66-.28-.66-.28-.66-.28-.66-.27-.67-.28-.65-.27-.66-.28-.66-.27-.66-.27-.66-.27-.66-.27-.66-.53-1.3-.53-1.32-.52-1.3-.53-1.3-.52-1.3-.52-1.3-.51-1.3-1.03-2.57-.5-1.29-.52-1.27-.5-1.28-.51-1.26-.51-1.27-.51-1.26-.51-1.25-.51-1.25-.25-.62-.26-.62-.26-.62-.25-.61-.26-.62-.25-.61-.26-.61-.26-.61-.26-.61-.25-.61-.26-.6-.26-.6-.26-.61-.26-.6-.26-.6-.27-.6-.26-.6-.26-.58-.27-.6-.26-.58-.27-.6-.27-.58-.26-.58-.27-.58-.27-.58-.27-.58-.27-.57-.28-.58-.27-.57-.27-.57-.28-.56-.28-.57-.27-.56-.28-.56-.29-.56-.28-.55-.28-.56-.28-.55-.29-.55-.29-.54-.28-.55-.3-.54-.29-.54-.29-.53-.3-.54-.29-.53-.3-.53-.3-.53-.3-.52-.3-.53-.15-.25-.15-.26-.15-.26-.15-.26-.16-.26-.15-.25-.16-.26-.15-.25-.15-.26-.16-.25-.16-.26-.15-.25-.16-.25-.16-.25-.15-.25-.16-.25-.16-.25-.16-.25-.16-.25-.15-.24-.13-.2-.13-.19-.12-.18-.12-.19-.13-.18-.12-.19-.13-.18-.13-.18-.12-.18-.13-.17-.13-.18-.12-.17-.13-.17-.13-.18-.13-.17-.12-.16-.13-.17-.13-.17-.13-.16-.13-.16-.13-.17-.13-.16-.13-.15-.13-.16-.13-.16-.13-.16-.14-.15-.13-.15-.13-.15-.13-.15-.14-.15-.13-.15-.13-.15-.13-.14-.14-.15-.13-.14-.13-.14-.14-.14-.13-.14-.14-.14-.14-.14-.13-.13-.13-.14-.14-.13-.14-.13-.13-.13-.14-.13-.14-.13-.13-.13-.14-.13-.14-.12-.14-.13-.13-.12-.14-.12-.14-.13-.14-.12-.14-.12-.14-.12-.02.01-.67.3-.67.28-.66.3-.67.28-.66.28-.67.28-.66.28-.67.28-.66.28-.66.27-.66.27-.66.27-.66.27-.66.27-.66.26-.65.26-.66.26-.65.26-.66.25-.65.25-.65.25-.65.25-.65.24-.65.24-.64.24-.64.24-.65.23-.64.23-.64.23-.64.23-.64.22-.63.22-.64.21-.63.22-.63.2-.63.21-.63.2-.63.2-.62.2-.62.2-.63.2-.62.18-.62.18-.61.18-.62.18-.61.18-.62.17-.6.16-.62.17-.6.16-.61.15-.6.15-.61.15-.6.14-.3.08-.3.07-.3.07-.3.06-.3.07-.3.06-.3.07-.3.06-.3.07-.3.06-.3.06-.3.06-.3.05-.3.06-.3.06-.29.05-.3.06-.3.05-.29.05-.3.05-.3.05-.29.04-.3.05-.3.05-.29.04-.3.04-.29.04-.3.04-.3.04-.29.04-.3.04-.29.03-.3.03-.3.04-.29.03-.3.02-.3.03-.3.03-.29.02-.3.02-.3.03-.3.02-.3.01-.3.02-.3.01-.3.02h-.3l-.3.02h-.3l-.3.01h-1.82l-.31-.02h-.31l-.31-.02-.31-.02-.31-.01-.31-.03-.32-.02-.31-.03-.32-.02-.31-.04-.32-.03-.32-.04-.32-.04-.32-.04-.32-.05-.33-.05-.32-.05-.33-.06-.32-.06-.34-.07-.33-.06-.33-.08-.33-.07-.34-.08-.34-.09-.33-.09-.34-.1-.34-.1-.35-.1-.34-.1-.34-.12-.35-.12-.35-.13-.35-.13-.35-.14-.35-.14-.35-.15-.35-.15-.36-.17-.34-.16-.36-.18-.36-.18-.35-.19-.35-.2-.35-.2-.36-.21-.35-.22-.35-.23-.35-.23-.35-.24-.35-.25-.34-.25-.34-.27-.34-.27-.33-.28-.34-.29-.33-.3-.32-.3-.32-.3-.32-.33-.31-.32-.3-.33-.3-.34-.3-.35-.29-.35-.28-.36-.27-.36-.26-.36-.22-.3-.2-.3-.2-.31-.2-.3-.19-.33-.19-.31-.18-.33-.18-.33-.17-.33-.17-.34-.17-.34-.15-.34-.16-.36-.14-.35-.15-.36-.13-.36-.13-.36-.13-.37-.11-.37-.11-.37-.1-.37-.1-.38-.1-.38-.08-.38-.08-.38-.07-.38-.06-.38-.06-.39-.05-.38-.04-.38-.04-.38-.03-.38-.02-.39-.01-.38-.01-.37v-.76l.01-.37.02-.38.02-.37.03-.36.03-.37.04-.36.05-.36.05-.35.06-.35.06-.35.07-.35.07-.34.07-.34.08-.33.09-.33.09-.33.1-.32.09-.32.1-.31.1-.31.11-.31.11-.3.12-.3.11-.3.12-.29.13-.29.12-.28.13-.28.13-.27.13-.28.14-.26.13-.27.14-.26.14-.26.15-.25.14-.25.15-.25.14-.24.15-.24.15-.24.15-.23.16-.24.16-.23.15-.22.16-.22.15-.22.17-.22.15-.21.17-.21.16-.21.17-.21.16-.2.16-.2.17-.2.16-.2.17-.19.17-.19.17-.19.17-.19.17-.18.17-.18.18-.18.17-.18.17-.18.18-.18.17-.17.18-.17.17-.17.18-.16.18-.17.18-.17.17-.16.18-.16.18-.16.18-.16.18-.15.19-.16.18-.15.18-.15.19-.15.18-.15.18-.15.2-.15.18-.14.18-.15.19-.14.19-.14.18-.14.2-.14.18-.14.2-.14.19-.13.18-.13.2-.14.19-.13.2-.13.2-.15.37-.24.4-.25.39-.25.4-.25.4-.24.4-.24.4-.24.4-.23.41-.23.41-.22.42-.22.41-.22.42-.22.42-.21.43-.21.42-.2.43-.21.43-.2.44-.2.43-.2.44-.19.44-.18.45-.2.44-.17.45-.19.45-.17.46-.18.45-.17.46-.17.47-.17.46-.16.47-.16.47-.16.47-.15.47-.16.48-.15.48-.14.48-.15.48-.14.5-.14.48-.13.5-.13.49-.13.5-.13.49-.12.5-.13.5-.11.51-.12.5-.11.52-.1.51-.11.51-.1.52-.1.52-.1.52-.1.53-.09.52-.08.53-.09.53-.08.53-.07.54-.08.53-.07.54-.06.54-.07.54-.06.55-.05.54-.06.55-.05.54-.04.29-.02.27-.02.28-.02.28-.02.27-.02.28-.02.28-.01.28-.02.28-.01.28-.01.28-.02h.28l.28-.02h.28l.28-.02H790.12l.28-.01h.29l.28-.01h2.29l.28.01.3.01.28.01h.29l.29.02.29.01.29.01.29.02.29.01.29.02.3.01.28.02.3.02.28.02.3.02.29.02.3.03.28.02.3.03.3.02.29.03.3.03.28.03.3.03.3.03.3.04.28.03.3.04.3.04.3.04.3.04.29.04.3.04.3.04.3.05.29.04.3.05.3.05.3.05.3.05.3.05.29.06.3.05.3.06.3.05.3.06.3.06.3.06.3.07.3.06.3.07.3.06.3.07.3.07.3.07.3.07.3.08.3.07.3.08.3.08.3.07.3.08.3.09.31.08.3.08.3.09.3.09.3.09.3.09.31.09.3.1.3.09.3.1.3.09.3.1.3.1.31.1.3.1.3.11.3.1.3.11.3.11.3.11.59-.28.61-.3.62-.3.62-.31.62-.3.61-.31.62-.31.61-.3.62-.32.61-.3.62-.31.6-.31.62-.31.6-.31.62-.31.6-.31.6-.32.61-.3.6-.32.6-.31.6-.31.6-.32.6-.3.6-.32.59-.31.59-.32.59-.3.59-.32.58-.31.58-.31.58-.31.58-.31.58-.31.57-.31.57-.31.57-.3 1.13-.63 1.12-.61 1.11-.61 1.1-.6 1.08-.61 1.07-.6 1.06-.6 1.04-.58 1.03-.59 1.02-.58 1-.57.98-.57.97-.56.95-.56.94-.55.91-.53.9-.54.87-.52.86-.52.84-.5.82-.5.8-.48.77-.48.75-.46.73-.46.7-.44.69-.43.32-.2.32-.22.32-.2.31-.2.3-.2.3-.19.3-.19.28-.18.27-.18.27-.18.26-.17.25-.17.25-.17.24-.16.22-.15.22-.16.21-.14.2-.14.2-.14.19-.13.17-.12.17-.12.15-.11.15-.1.13-.1.13-.1.42-.32.43-.32.42-.32.43-.33.42-.33.43-.33.42-.33.42-.33.42-.33.42-.34.42-.33.42-.34.42-.34.42-.34.42-.34.42-.34.41-.35.42-.34.41-.35.41-.35.42-.35.41-.35.41-.35.41-.36.41-.35.41-.36.4-.36.41-.36.41-.36.4-.36.41-.37.4-.36.4-.37.41-.37.4-.37.4-.37.4-.37.4-.37.4-.38.4-.37.4-.38.39-.38.4-.38.39-.38.39-.38.4-.39.38-.38.4-.39.38-.38.39-.4.39-.38.38-.4.39-.39.38-.39.39-.4.38-.39.38-.4.38-.4.38-.4.38-.4.38-.4.37-.4.38-.4.37-.4.38-.42.37-.4.37-.41.37-.41.37-.41.37-.41.37-.42.37-.41.36-.42.37-.41.36-.42.36-.42.36-.42.37-.42.35-.42.36-.43.36-.42.36-.43.35-.42.36-.43.35-.43.35-.43.35-.43.35-.43.35-.43.35-.44.35-.43.34-.44.34-.43.35-.44.34-.44.34-.44.34-.44.34-.44.34-.44.33-.44.34-.45.33-.44.34-.45.33-.45.33-.44.33-.45.32-.45.33-.45.33-.45.32-.46.33-.45.32-.45.32-.46.32-.45.32-.46.31-.46.32-.46.32-.46.31-.46.31-.46.31-.46.31-.46.31-.47.3-.46.32-.47.3-.46.3-.47.3-.46.3-.47.3-.47.3-.47.3-.47.3-.47.3-.47.29-.48.29-.47.29-.47.29-.48.29-.47.28-.48.29-.48.28-.48.29-.47.28-.48.28-.48.28-.48.27-.48.28-.48.28-.49.27-.48.27-.48.27-.49.27-.48.27-.49.27-.48.26-.49.26-.49.27-.49.26-.48.26-.5.26-.48.25-.5.26-.48.25-.5.25-.49.26-.49.24-.49.25-.5.25-.49.24-.5.25-.49.24-.5.24-.49.24-.5.24-.5.24-.49.23-.5.23-.5.24-.5.23-.5.23-.5.22-.5.23-.5.23-.5.22-.5.22-.5.22-.5.22-.5.22-.5.21-.5.22-.51.2-.5.22-.51.21-.5.2-.51.22-.5.2-.51.2-.5.2-.51.2-.51.2-.5.2-.52.2-.5.2-.51.18-.51.2-.5.18-.52.2-.5.18-.52.18-.5.18-.52.19-.5.18-.52.17-.5.18-.52.18-.51.17-.51.17-.51.17-.52.17-.5.17-.52.16-.51.17-.52.16-.5.16-.52.16-.52.15-.5.16-.52.15-.52.15-.5.15-.52.15-.52.15-.51.15-.51.14-.52.14-.51.14-.52.14-.51.14-.52.13-.51.14-.52.13-.51.13-.52.13-.51.12-.52.13-.51.12-.52.13-.51.11-.52.12-.51.12-.52.11-.51.12-.52.1-.51.12-.52.1-.51.11-.52.1-.51.11-.52.1-.51.1-.52.1-.51.1-.52.09-.51.09-.52.09-.51.09-.52.09-.51.08-.51.08-.52.09-.51.08-.52.07-.5.08-.52.07-.52.08-.5.07-.52.07-.52.06-.5.07-.52.06-.51.07-.52.06-.5.05-.52.06-.51.06-.51.05-.51.05-.52.05-.5.05-.52.04-.5.04-.52.05-.5.04-.52.03-.5.04-.52.04-.5.03-.51.03-.51.03-.5.02-.52.03-.5.02-.51.03-.5.02-.51.01-.51.02-.5.01-.51.02-.5v-.51l.01-.5.01-.51V696.68l-.01-.5-.01-.5-.02-.5-.01-.5-.02-.5-.01-.5-.02-.5-.03-.5-.02-.5-.03-.5-.02-.5-.03-.49-.03-.5-.04-.5-.03-.49-.04-.5-.04-.49-.04-.5-.04-.48-.05-.5-.04-.49-.05-.5-.05-.48-.06-.5-.05-.48-.06-.5-.05-.48-.07-.5-.06-.48-.06-.5-.07-.48-.07-.48-.07-.5-.07-.48-.07-.48-.08-.49-.08-.48-.08-.49-.08-.48-.08-.48-.09-.48-.09-.49-.09-.48-.09-.48-.1-.48-.09-.48-.1-.48-.1-.47-.1-.48-.1-.48-.1-.48-.11-.47-.11-.48-.11-.47-.12-.48-.12-.47-.11-.47-.12-.47-.12-.48-.13-.47-.12-.47-.13-.47-.13-.47-.13-.46-.14-.47-.13-.47-.14-.47-.14-.46-.15-.47-.14-.46-.15-.47-.14-.46-.16-.46-.15-.47-.15-.46-.16-.46-.16-.46-.16-.46-.16-.46-.17-.46-.17-.45-.16-.46-.18-.46-.17-.45-.18-.46-.17-.45-.18-.45-.18-.46-.19-.45-.19-.45-.18-.45-.2-.45-.19-.45-.2-.45-.19-.45-.2-.44-.2-.45-.2-.45-.2-.44-.22-.45-.2-.44-.22-.44-.21-.45-.22-.44-.22-.44-.22-.44-.22-.44-.23-.44-.23-.44-.23-.43-.23-.44-.23-.44-.24-.43-.24-.44-.24-.43-.24-.44-.25-.43-.24-.43-.25-.43-.26-.43-.25-.43-.26-.43-.26-.43-.26-.42-.26-.43-.27-.43-.27-.42-.27-.43-.27-.42-.28-.42-.27-.42-.28-.43-.29-.42-.28-.41-.29-.42-.29-.42-.29-.42-.3-.42-.3-.41-.29-.42-.3-.41-.3-.42-.31-.4-.31-.42-.31-.41-.32-.41-.31-.41-.32-.41-.32-.4-.33-.42-.32-.4-.33-.4-.33-.41-.33-.4-.34-.41-.34-.4-.34-.4-.34-.4-.35-.4-.35-.4-.35-.4-.35-.4-.36-.4-.36-.4-.36-.39-.36-.4-.37-.38-.37-.4-.37-.39-.38-.39-.37-.39-.38-.39-.38-.39-.39-.38-.39-.39-.39-.39-.4-.38-.39-.38-.4-.39-.4-.38-.4-.38-.4-.38-.42-.38-.4-.38-.42-.37-.42-.38-.42-.38-.42-.37-.43-.37-.43-.38-.43-.37-.43-.37-.45-.38-.62-.52-.64-.53-.64-.54-.64-.53-.65-.54-.65-.54-.66-.53-.66-.54-.66-.54-.68-.54-.33-.26-.33-.27-.34-.27-.34-.27-.34-.26-.34-.27-.34-.27-.34-.26-.34-.27-.35-.26-.34-.27-.34-.26-.35-.26-.35-.27-.34-.26-.35-.26-.35-.26-.35-.26-.35-.26-.35-.26-.35-.26-.35-.26-.35-.25-.36-.26-.35-.26-.36-.25-.35-.25-.36-.25-.35-.25-.36-.25-.35-.25-.36-.25-.36-.25-.36-.24-.36-.24-.36-.25-.36-.24-.36-.24-.36-.24-.36-.23-.36-.24-.36-.23-.37-.24-.36-.23-.36-.23-.36-.23-.37-.22-.36-.23-.37-.22-.36-.22-.36-.22-.37-.22-.36-.22-.37-.21-.36-.21-.36-.22-.37-.2-.36-.21-.37-.2-.36-.21-.37-.2-.36-.2-.37-.2-.36-.2-.37-.19-.36-.19-.37-.19-.36-.18-.36-.19-.37-.18-.36-.18-.36-.18-.37-.17-.36-.18-.36-.17-.36-.16-.37-.17-.36-.16-.36-.16-.36-.16-.36-.16-.36-.15-.36-.15-.36-.15-.36-.15-.35-.14-.36-.14-.36-.14-.35-.14-.36-.13-.35-.13-.36-.13-.35-.12-.37-.13-.16-.06-.17-.06-.18-.05-.18-.06-.17-.06-.18-.06-.17-.05-.18-.06-.17-.05-.17-.06-.18-.05-.17-.05-.18-.05-.17-.06-.18-.05-.17-.05-.17-.04-.17-.05-.18-.05-.17-.05-.17-.05-.17-.04-.17-.05-.17-.04-.17-.04-.18-.05-.17-.04-.15-.04-.31-.07-.3-.07-.3-.07-.3-.06-.3-.06-.31-.07-.3-.06-.31-.06-.31-.05-.31-.06-.31-.05-.32-.05-.31-.05-.32-.05-.32-.05-.31-.05-.32-.04-.33-.04-.32-.04-.32-.04-.33-.04-.33-.03-.32-.04-.34-.03-.33-.03-.33-.03-.34-.03-.33-.03-.34-.02-.34-.03-.34-.02-.34-.02-.34-.02-.35-.02-.34-.01-.35-.02-.35-.01-.35-.01-.35-.01-.35-.01-.36-.01h-.35l-.36-.01h-.36l-.36-.01h-1.81l-.36.01h-.37l-.37.01-.37.01-.37.01-.37.01-.38.01-.37.02-.38.01-.37.02-.38.01-.38.02-.38.02-.38.02-.38.02-.38.02-.39.02-.38.03-.39.02-.39.03-.38.02-.39.03-.39.03-.39.03-.4.03-.38.03-.8.06-.78.06-.8.07-.8.08-.8.07-.8.07-.8.08-.82.08-.8.08-.82.08-.82.09-.82.08-1.66.18-1.66.17-1.67.18-.84.08-.84.09-.84.09-.85.08-.85.09-.85.08-.85.08-.84.08-.56.05-.54.05-.54.05-.54.05-.54.06-.54.05-.54.06-.54.05-.54.06-.54.06-.54.06-.54.05-.54.07-.53.06-.54.06-.54.06-.54.07-.53.06-.54.07-.54.07-.53.06-.54.07-.53.07-.54.07-.53.07-.54.08-.53.07-.54.07-.53.08-.53.07-.53.08-.54.08-.53.08-.53.08-.53.08-.54.08-.53.08-.53.08-.53.09-.53.08-.53.09-.52.08-.53.1-.53.08-.53.09-.53.09-.53.09-.52.1-.53.08-.52.1-.53.1-.53.09-.52.1-.53.1-.52.09-.53.1-.52.1-.52.1-.53.1-.52.1-.52.1-.52.1-.53.11-.52.1-.52.11-.52.11-.52.11-.52.1-.52.12-.52.11-.52.11-.51.11-.52.12-.52.11-.52.12-.51.11-.52.12-.52.12-.51.12-.52.12-.51.12-.52.12-.51.12-.51.12-.52.12-.51.13-.51.12-.51.13-.52.13-.5.13-.52.12-.5.13-.52.13-.5.14-.52.13-.5.13-.51.13-.5.14-.52.13-.5.14-.51.14-.5.13-.51.14-.5.14-.51.14-.5.15-.51.14-.5.14-.5.14-.51.15-.5.14-.5.15-.5.15-.5.14-.5.15-.5.15-.5.15-.5.15-.5.16-.5.15-.5.15-.5.16-.5.15-.49.16-.5.16-.49.15-.5.16-.49.16-.5.16-.49.16-.49.16-.5.17-.48.16-.5.17-.49.16-.49.17-.49.16-.49.17-.49.17-.48.17-.5.17-.48.17-.49.17-.48.17-.49.17-.49.18-.48.17-.49.18-.48.18-.48.17-.49.18-.48.18-.48.18-.48.18-.49.18-.48.18-.48.18-.48.19-.48.18-.47.19-.48.18-.48.19-.48.19-.47.19-.48.18-.47.2-.48.19-.47.19-.48.19-.47.2-.47.19-.48.19-.47.2-.47.2-.47.19-.47.2-.47.2-.47.2-.47.2-.47.2-.46.2-.47.2-.47.2-.46.2-.47.21-.46.2-.47.21-.46.2-.46.22-.47.2-.46.21-.46.21-.46.21-.46.21-.46.22-.46.21-.46.21-.46.22-.45.21-.46.22-.46.22-.45.21-.46.22-.45.22-.45.22-.46.22-.45.22-.45.23-.45.22-.45.22-.45.23-.45.22-.45.23-.45.22-.45.23-.45.23-.44.23-.45.23-.45.23-.44.23-.45.23-.44.23-.44.24-.45.23-.44.24-.44.23-.44.24-.44.24-.44.23-.44.24-.44.24-.43.24-.44.24-.44.24-.43.25-.44.24-.43.24-.44.25-.43.24-.43.25-.44.24-.43.25-.43.25-.43.25-.43.25-.43.25-.42.25-.43.25-.43.25-.43.26-.42.25-.43.25-.42.26-.42.25-.43.26-.42.26-.42.26-.42.25-.42.26-.42.26-.42.27-.42.26-.42.26-.41.26-.42.27-.42.26-.41.27-.42.26-.4.27-.42.26-.41.27-.42.27-.4.27-.42.27-.4.27-.42.27-.4.28-.41.27-.4.27-.41.28-.41.27-.4.28-.41.27-.4.28-.4.28-.4.28-.4.28-.4.27-.4.29-.4.28-.4.28-.4.28-.4.28-.4.29-.4.28-.39.29-.4.28-.39.3-.39.28-.4.29-.38.29-.4.28-.39.3-.38.28-.4.3-.38.29-.39.3-.38.28-.39.3-.38.3-.39.29-.38.3-.39.3-.38.29-.38.3-.38.3-.38.3-.38.3-.38.3-.37.3-.38.3-.38.3-.37.3-.38.3-.37.31-.37.31-.38.3-.37.31-.37.31-.37.3-.37.32-.37.3-.36.32-.37.3-.37.32-.36.31-.37.31-.36.31-.37.32-.36.31-.36.32-.36.31-.36.32-.36.32-.36.32-.36.31-.35.32-.36.32-.35.32-.36.32-.35.33-.36.32-.35.32-.35.33-.35.32-.35.32-.35.33-.35.32-.35.33-.34.33-.35.33-.34.33-.35.32-.34.33-.35.34-.34.33-.34.33-.34.33-.34.33-.34.34-.34.33-.33.34-.34.33-.34.34-.33.33-.33.34-.34.34-.33.34-.33.34-.33.34-.33.34-.33.34-.33.34-.33.34-.32.34-.33.35-.32.34-.33.35-.32.34-.32.35-.33.35-.32.34-.32.35-.32.35-.31.35-.32.35-.32.35-.31.35-.32.35-.31.35-.32.35-.3.36-.32.35-.31.36-.3.35-.32.36-.3.35-.31.36-.31.36-.3.35-.31.36-.3.36-.3.36-.3.36-.31.36-.3.37-.3.36-.3.36-.3.36-.3.37-.29.36-.3.37-.29.36-.3.37-.28.37-.3.36-.29.37-.29.37-.29.37-.29.37-.28.37-.29.37-.28.37-.29.37-.28.38-.28.37-.29.37-.28.38-.28.37-.28.38-.28.37-.27.38-.28.38-.28.38-.27.38-.28.37-.27.38-.27.38-.27.38-.27.39-.27.38-.27.38-.27.38-.26.39-.27.38-.26.39-.27.38-.26.39-.26.38-.26.39-.27.39-.25.39-.26.38-.26.4-.26.38-.25.4-.26.38-.25.4-.25.39-.26.4-.25.38-.25.4-.25.4-.25.39-.24.4-.25.39-.24.4-.25.4-.24.39-.24.4-.25.4-.24.4-.24.4-.24.4-.23.4-.24.4-.24.4-.23.4-.24.4-.23.41-.23.4-.23.4-.23.41-.23.4-.23.42-.23.4-.22.41-.23.4-.23.42-.22.4-.22.42-.22.4-.22.42-.22.4-.22.42-.22.41-.22.42-.21.4-.22.42-.21.42-.22.41-.2.42-.17.32-.16.33-.17.32-.16.32-.16.33-.15.32-.16.32-.16.33-.15.32-.16.32-.15.33-.15.32-.15.32-.15.33-.15.32-.15.32-.14.32-.15.33-.14.32-.14.32-.15.32-.14.32-.14.33-.14.32-.13.32-.14.32-.13.32-.13.33-.14.32-.13.32-.13.32-.13.32-.12.32-.13.32-.13.32-.12.32-.12.32-.13.32-.12.32-.12.32-.11.32-.12.32-.12.32-.11.32-.12.32-.11.32-.11.32-.11.32-.11.32-.1.32-.12.31-.1.32-.1.32-.11.32-.1.32-.1.32-.1.31-.1.32-.1.32-.1.32-.1.31-.09.32-.09.32-.09.31-.1.32-.08.32-.09.31-.09.32-.08.32-.09.31-.08.32-.08.31-.08.32-.09.32-.07.31-.08.32-.08.31-.07.32-.08.31-.07.32-.07.31-.07.32-.08.31-.06.32-.07.3-.07.32-.06.32-.07.31-.06.32-.06.3-.06.32-.06.32-.06.3-.06.32-.05.31-.06.32-.05.31-.05.31-.05.31-.05.32-.05.31-.05.31-.05.31-.04.32-.05.3-.04.32-.04.31-.04.31-.04.31-.04.31-.04.32-.03.3-.04.32-.03.3-.03.32-.03.3-.03.32-.03.31-.03.31-.03.3-.02.32-.03.31-.02.31-.02.3-.02.32-.02.3-.02.32-.02.3-.01.32-.02.3-.01.32-.02.3v.31l-.02.31v.31l-.01.3-.01.32v.3l-.01.32v2.46l.01.31.01.3.01.32.01.3.01.31.02.3v.32l.02.3.02.31.02.31.02.3.02.32.02.3.02.3.02.32.03.3.02.31.03.3.03.32.03.3.03.31.03.31.03.3.04.31.03.31.04.31.04.3.04.31.04.31.04.31.04.3.04.31.05.31.05.31.04.3.05.32.06.3.05.31.05.3.05.32.06.3.06.31.05.31.06.3.06.32.07.3.06.31.06.31.07.3.07.32.06.3.07.31.07.31.08.31.07.31.08.3.07.32.08.3.08.31.08.31.08.31.08.31.09.31.08.31.09.31.09.31.08.31.1.31.09.31.1.31.09.31.1.31.09.31.1.31.1.31.1.31.1.31.1.31.11.31.11.32.1.3.12.32.11.3.11.32.12.31.11.31.12.32.12.3.12.32.12.31.12.32.12.3.13.32.13.31.13.32.12.31.13.31.14.32.13.31.14.32.13.3.14.32.14.32.14.31.15.32.14.31.15.32.15.31.14.31.05.11.05.1.05.1.05.1.06.11.05.1.05.1.06.11.05.1.06.11.05.1.06.12.06.1.06.1.06.12.06.1.06.1.06.12.06.1.07.11.06.11.07.1.06.12.07.1.07.11.07.11.07.11.07.11.07.11.07.11.07.11.07.11.07.11.08.11.07.11.08.11.08.11.07.11.08.11.08.11.08.11.08.11.08.11.08.12.08.1.09.12.08.1.09.12.08.1.08.12.1.11.08.1.08.12.1.11.08.11.1.11.08.11.1.11.09.11.09.11.1.1.09.12.09.1.1.12.09.1.1.12.1.1.09.11.1.11.1.1.1.12.1.1.1.11.1.11.1.1.1.11.1.11.1.1.1.11.11.1.11.12.1.1.11.1.1.11.12.1.1.11.11.1.11.1.11.11.1.1.12.1.11.11.11.1.11.1.12.1.11.1.11.1.12.1.11.1.12.1.11.1.12.1.11.1.12.1.12.1.12.1.12.1.11.1.12.09.12.1.12.09.12.1.12.09.12.1.12.08.13.1.12.1.12.08.12.1.13.09.12.09.13.09.12.09.12.09.13.09.13.08.12.09.13.09.12.08.13.1.13.08.13.08.12.08.13.09.13.08.13.09.13.08.13.08.13.08.13.08.13.08.13.08.13.08.13.08.13.08.13.07.13.08.13.08.14.07.13.08.13.07.13.07.14.08.13.07.13.07.14.07.13.07.14.07.13.07.13.07.14.07.13.07.14.06.13.07.14.06.13.07.14.06.13.07.14.06.13.06.14.06.14.06.13.07.14.06.13.05.14.06.14.06.13.06.14.05.14.06.13.05.14.06.14.05.14.05.13.05.14.05.14.06.13.05.14.04.14.05.13.05.14.05.14.05.13.04.14.05.14.04.14.04.13.04.14.05.14.04.14.04.14.04.13.04.14.04.14.04.13.03.14.04.14.03.14.04.13.03.14.04.14.03.13.03.14.03.14.03.13.03.14.03.14.03.13.03.14.03.14.02.13.03.14.02.14.03.13.02.14.02.14.02.13.02.14.02.13.02.14.02.13.02.14.02.14.02.13.01.14.02.13.01.14.01.13.02h.14l.13.02.14.01.13.01.14.01h.13l.14.02h.13l.14.01h.13l.14.01h.26l.14.01h.69l.25.01h.39l.74.03h.31l.3-.07 4.06-.13 3.99.85 3.66 1.78 3.14 2.6.47.5.43.54.95 1.3v.02l1 1.72.88 2.1v.01l.65 2.5.26 2.86v.01l-.23 2.91v.01l-.73 2.81v.01l-1.09 2.45-1.3 2.05-1.3 1.54-1.29 1.22-.54.47-1.09.78-.96.6-.84.44-.71.34-.8.33-.94.34-.87.26-.71.17-.6.12-.5.1-.42.06-.39.05-.34.03-.3.03-.29.03-.26.02-.24.01-.26.02-.39.01-.39.02H634.27l-.5-.01-.47-.02-.7-.02h-1.02l-.32-.01-.33-.01-.32-.01-.32-.01-.32-.02-.32-.01-.32-.02-.31-.02-.32-.02-.32-.02-.32-.02-.31-.03-.32-.02-.31-.03-.32-.03-.31-.03-.32-.04-.31-.03-.31-.04-.32-.04-.3-.04-.32-.04-.31-.04-.31-.05-.31-.04-.3-.05-.32-.05-.3-.05-.31-.05-.31-.06-.3-.05-.31-.06-.3-.06-.31-.06-.3-.06-.3-.06-.31-.07-.3-.06-.3-.07-.3-.07-.3-.07-.3-.07-.3-.07-.3-.08-.3-.07-.3-.08-.3-.08-.29-.08-.3-.08-.29-.08-.3-.09-.28-.08-.3-.09-.29-.09-.29-.08-.29-.1-.29-.09-.29-.09-.28-.1-.3-.1-.28-.09-.28-.1-.3-.1-.27-.1-.29-.1-.28-.1-.28-.1-.29-.11-.28-.1-.28-.11-.28-.11-.28-.11-.27-.11-.28-.12-.28-.11-.28-.12-.27-.11-.27-.12-.28-.12-.27-.12-.27-.12-.28-.12-.27-.12-.27-.12-.27-.13-.27-.13-.26-.12-.27-.13-.26-.13-.27-.13-.27-.13-.26-.13-.26-.14-.27-.13-.26-.14-.26-.13-.26-.14-.26-.14-.26-.14-.26-.14-.25-.14-.26-.14-.26-.14-.25-.15-.25-.14-.25-.15-.26-.15-.25-.15-.25-.14-.25-.15-.25-.15-.25-.15-.25-.16-.24-.15-.25-.15-.25-.16-.24-.16-.25-.16-.24-.15-.24-.16-.24-.16-.24-.16-.24-.16-.24-.17-.24-.16-.24-.16-.24-.17-.23-.16-.23-.17-.24-.17-.23-.16-.24-.17-.23-.17-.23-.17-.23-.18-.23-.17-.23-.17-.22-.17-.23-.18-.23-.18-.22-.17-.23-.18-.22-.18-.22-.17-.22-.18-.23-.18-.22-.19-.22-.18-.21-.18-.22-.18-.22-.19-.21-.18-.22-.18-.21-.2-.22-.18-.21-.19-.21-.18-.21-.2-.21-.18-.21-.2-.21-.18-.21-.2-.2-.19-.21-.2-.2-.19-.21-.19-.2-.2-.2-.2-.2-.19-.2-.2-.2-.2-.2-.2-.2-.19-.2-.2-.2-.2-.2-.2-.19-.2-.2-.2-.18-.21-.2-.2-.19-.2-.19-.21-.19-.21-.18-.2-.2-.21-.18-.21-.18-.21-.19-.21-.18-.2-.18-.22-.19-.21-.18-.21-.18-.21-.18-.22-.17-.21-.18-.21-.18-.22-.17-.21-.18-.22-.17-.22-.17-.21-.18-.22-.17-.22-.16-.22-.18-.22-.16-.22-.17-.22-.16-.22-.17-.22-.16-.22-.17-.23-.16-.22-.16-.23-.16-.22-.16-.23-.16-.22-.15-.23-.16-.23-.15-.22-.16-.23-.15-.23-.15-.23-.15-.23-.15-.23-.15-.23-.15-.24-.15-.23-.14-.23-.15-.24-.14-.23-.14-.23-.14-.24-.15-.24-.14-.23-.14-.24-.13-.24-.14-.24-.13-.24-.14-.23-.13-.24-.13-.25-.13-.23-.13-.25-.13-.24-.13-.24-.12-.25-.13-.24-.12-.25-.13-.24-.12-.25-.12-.24-.12-.25-.11-.25-.2-.43-.21-.43-.2-.42-.2-.43-.19-.43-.2-.43-.18-.43-.2-.43-.18-.43-.19-.43-.18-.43-.18-.43-.18-.43-.18-.43-.18-.44-.17-.43-.18-.43-.17-.43-.17-.43-.17-.44-.16-.43-.17-.43-.16-.44-.16-.43-.16-.43-.15-.44-.16-.43-.15-.44-.16-.43-.15-.44-.14-.43-.15-.44-.14-.43-.15-.44-.14-.43-.13-.44-.14-.43-.14-.44-.13-.44-.13-.43-.13-.44-.13-.43-.12-.44-.13-.44-.12-.44-.12-.43-.12-.44-.12-.44-.11-.44-.12-.43-.1-.44-.12-.44-.1-.44-.11-.44-.1-.44-.1-.43-.11-.44-.1-.44-.1-.44-.1-.44-.08-.44-.1-.44-.09-.44-.08-.44-.1-.43-.08-.44-.08-.44-.08-.44-.08-.44-.08-.44-.07-.44-.07-.44-.08-.44-.07-.44-.07-.44-.06-.44-.07-.44-.06-.44-.06-.44-.06-.44-.06-.44-.06-.44-.05-.44-.05-.44-.05-.44-.05-.44-.05-.44-.05-.44-.04-.44-.04-.44-.04-.44-.04-.44-.04-.44-.03-.44-.04-.44-.03-.44-.03-.44-.03-.44-.02-.44-.03-.44-.02-.44-.02-.44-.02-.44-.02-.44-.01-.44-.02-.44-.01-.44-.01-.44-.01-.44v-.43l-.01-.44v-.44l-.01-.44v-1.75l.01-.44v-.44l.02-.44v-.44l.02-.43.02-.44.01-.44.02-.44.02-.43.02-.44.02-.44.03-.44.02-.43.03-.44.03-.43.03-.44.03-.44.04-.43.03-.44.04-.43.04-.44.04-.44.04-.43.05-.43.04-.44.05-.43.05-.44.05-.43.05-.44.05-.43.06-.43.06-.44.05-.43.06-.43.06-.44.07-.43.06-.43.07-.43.07-.44.07-.43.07-.43.07-.43.07-.43.08-.43.07-.43.08-.43.08-.43.08-.44.09-.42.08-.43.09-.43.08-.43.1-.43.08-.43.1-.43.09-.43.1-.42.09-.43.1-.43.1-.43.1-.42.1-.43.1-.43.11-.42.1-.43.12-.42.1-.43.12-.42.1-.43.12-.42.12-.43.11-.42.12-.43.12-.42.12-.42.13-.43.12-.42.13-.42.12-.42.13-.42.13-.43.13-.42.13-.42.14-.42.13-.42.14-.42.14-.42.14-.42.14-.42.14-.42.14-.42.15-.41.14-.42.15-.42.15-.42.15-.42.15-.41.16-.42.15-.42.15-.41.16-.42.16-.41.16-.42.16-.42.16-.41.17-.41.16-.42.17-.41.17-.42.16-.4.17-.42.18-.42.17-.4.17-.42.18-.41.17-.41.18-.41.18-.42.18-.4.18-.42.18-.4.19-.42.18-.4.2-.42.18-.4.19-.41.19-.41.19-.4.2-.42.19-.4.2-.41.19-.4.2-.41.2-.41.2-.4.2-.41.2-.4.2-.41.2-.4.26-.5.25-.48.25-.49.25-.48.25-.49.26-.48.25-.48.26-.49.26-.48.26-.48.26-.48.26-.48.26-.48.26-.48.27-.48.26-.48.27-.47.27-.48.27-.48.27-.47.27-.47.27-.48.27-.47.27-.47.28-.47.28-.47.27-.47.28-.47.28-.47.28-.47.28-.46.29-.47.28-.47.29-.46.28-.47.29-.46.29-.46.29-.47.29-.46.29-.46.29-.46.3-.46.29-.46.3-.45.29-.46.3-.46.3-.45.3-.46.3-.45.3-.46.3-.45.3-.45.3-.45.31-.45.31-.45.3-.45.32-.45.3-.45.32-.45.31-.44.31-.45.32-.44.31-.45.32-.44.31-.44.32-.45.32-.44.32-.44.32-.44.32-.44.33-.44.32-.43.33-.44.32-.44.33-.43.33-.44.33-.43.33-.44.33-.43.33-.43.33-.43.34-.43.33-.43.34-.43.33-.43.34-.43.34-.42.34-.43.34-.42.34-.43.34-.42.35-.42.34-.43.35-.42.34-.42.35-.42.35-.42.35-.42.35-.41.35-.42.35-.42.36-.41.35-.42.35-.41.36-.42.36-.4.35-.42.36-.41.36-.41.36-.41.36-.4.37-.42.36-.4.36-.41.37-.4.37-.41.36-.4.37-.4.37-.41.37-.4.37-.4.37-.4.37-.4.38-.4.37-.4.38-.4.37-.4.38-.4.38-.38.38-.4.37-.4.38-.38.39-.4.38-.39.38-.39.39-.39.38-.39.39-.38.38-.4.39-.38.39-.38.39-.39.39-.38.39-.39.39-.38.4-.38.39-.38.4-.38.39-.38.4-.38.39-.38.4-.37.4-.38.4-.37.4-.38.4-.37.4-.38.4-.37.4-.37.41-.37.4-.37.41-.37.4-.37.42-.37.4-.36.42-.37.4-.36.42-.37.4-.36.42-.36.42-.37.41-.36.42-.36.41-.36.42-.36.42-.35.42-.36.41-.36.42-.35.43-.36.42-.35.42-.36.42-.35.43-.35.42-.35.43-.35.42-.35.43-.35.43-.35.43-.34.43-.35.43-.34.43-.35.43-.34.44-.34.43-.34.43-.35.44-.34.43-.34.44-.33.44-.34.44-.34.43-.33.45-.34.44-.33.44-.34.44-.33.44-.33.45-.33.44-.33.45-.33.44-.33.45-.33.44-.33.45-.32.45-.33.45-.32.45-.33.45-.32.45-.32.46-.32.45-.32.45-.32.46-.32.45-.32.46-.32.46-.31.45-.32.46-.32.46-.3.46-.32.46-.31.46-.32.46-.3.47-.32.46-.3.46-.31.47-.31.47-.3.46-.31.47-.3.47-.31.46-.3.47-.3.47-.3.47-.3.47-.3.47-.3.48-.3.47-.3.47-.3.48-.3.47-.29.48-.29.48-.3.47-.28.48-.3.48-.29.48-.29.48-.28.48-.3.48-.28.48-.29.48-.28.49-.28.48-.29.49-.28.48-.28.49-.28.48-.28.5-.28.48-.28.49-.28.49-.28.49-.27.49-.28.49-.27.49-.27.5-.28.49-.27.49-.27.5-.27.49-.27.5-.27.49-.26.5-.27.5-.26.5-.27.49-.26.5-.26.5-.27.5-.26.5-.26.5-.26.5-.26.5-.25.51-.26.5-.26.51-.25.5-.26.51-.25.5-.25.52-.25.5-.25.51-.25.51-.25.51-.25.51-.25.51-.24.51-.25.52-.24.5-.25.52-.24.52-.24.5-.24.52-.24.52-.24.52-.24.51-.24.52-.23.52-.24.52-.23.51-.24.52-.23.52-.23.52-.23.53-.24.52-.22.52-.23.52-.23.53-.23.52-.22.52-.23.53-.22.53-.23.52-.22.53-.22.53-.22.52-.22.53-.22.53-.22.53-.21.53-.22.53-.21.53-.22.53-.21.54-.21.53-.22.53-.2.54-.22.53-.2.54-.21.53-.21.54-.2.53-.21.54-.2.54-.2.54-.21.53-.2.54-.2.54-.2.54-.2.54-.2.54-.2.55-.2.54-.19.54-.2.54-.19.55-.19.54-.19.55-.2.54-.18.55-.19.54-.19.55-.18.55-.19.54-.19.55-.18.55-.18.55-.18.55-.19.55-.18.55-.18.55-.18.55-.17.55-.18.55-.18.56-.17.55-.17.55-.18.56-.17.55-.17.56-.17.56-.17.55-.17.56-.17.55-.16.56-.17.56-.16.56-.17.56-.16.56-.16.55-.16.57-.16.56-.16.56-.16.56-.16.56-.15.56-.16.57-.15.56-.16.56-.15.57-.15.56-.15.57-.15.56-.15.57-.15.56-.15.57-.14.57-.15.56-.14.57-.14.57-.15.57-.14.57-.14.57-.14.57-.13.57-.14.57-.14.57-.13.57-.14.57-.13.58-.14.57-.13.57-.13.58-.13.57-.13.57-.12.58-.13.57-.13.58-.12.58-.13.57-.12.58-.12.58-.12.57-.12.58-.12.58-.12.58-.12.58-.11.58-.12.58-.11.58-.12.58-.1.58-.12.58-.11.58-.11.58-.1.58-.12.59-.1.58-.1.58-.11.59-.1.58-.1.59-.11.58-.1.59-.1.58-.1.59-.1.58-.1.59-.09.59-.1.58-.09.6-.1.58-.08.59-.1.59-.09.59-.08.59-.1.58-.08.6-.09.59-.08.59-.08.59-.09.59-.08.59-.08.6-.08.58-.08.6-.08.59-.08.6-.07.59-.08.59-.07.6-.07.59-.08.6-.07.59-.07.6-.07.59-.06.6-.07.59-.07.6-.06.6-.07.59-.06.6-.06.6-.06.6-.06.6-.06.6-.06.59-.06.6-.05.58-.06.79-.07.78-.07.78-.08.79-.08.8-.08.8-.08.8-.08.81-.09 1.65-.17 1.67-.18 1.68-.17.85-.09.86-.09.86-.08.86-.1.87-.08.88-.08.88-.08.88-.08.9-.08.88-.08.9-.08.9-.07.46-.03.45-.04.46-.03.45-.03.46-.03.46-.04.46-.03.46-.02.46-.03.46-.03.46-.03.47-.02.46-.02.47-.03.46-.02.47-.02.47-.02.47-.02.47-.01.48-.02.47-.01.47-.01.48-.01.47-.01.48-.01h.48l.48-.01h1.44zm153.04 437.23l.04.02.04.02.04.02.04.02.04.02.04.02.04.01.05.02.04.02.06.02.04.01.04.02.04.01.04.02h.02l-.62-.26h.01zM620.52 830.33l.47 2.68.79 2.29.95 1.9.98 1.5.92 1.14.45.47-2.42-3.28-1.56-3.76-.59-3.82v.88zm-.02-2.9v1.5l.3-3.35-.3 1.85zm1.4-5.5l-.92 2.63-.08.45 1.16-3.38-.16.3zm1.22-2.24l-.58 1.06 1.4-2.16-.82 1.1zm2.6-3.13l-.67.72 1.54-1.46-.86.74zm4.02-2.8l-.81.43-.5.3 1.31-.74z"/>
    <path fill="#8666B3" d="M646.73 749.9l.79.04.78.07.77.12.77.14.76.19.76.22.82.28.8.32.78.36.76.4h.01l.59.35.57.37.56.39.46.33.67.56.39.35.32.3.31.31.25.26.21.22.18.18.58.64.55.68.52.7.47.73.44.75.4.77.36.8.32.8.12.34.13.3.14.33.13.34.14.35.15.4.14.4.14.44.14.47.13.5.13.54.13.58.1.55.06.4.05.35.04.36.03.36.03.4.03.4.01.42V770.44l.01.09v.19l.01.11v.11l.01.12.01.13v.14l.02.14v.13l.03.32.02.33.03.36.04.37.03.38.04.41.05.42.05.44.05.45.05.47.06.48.07.5.06.51.08.52.07.53.08.55.08.55.09.57.09.58.09.58.1.6.1.6.1.62.1.62.12.63.1.63.13.65.12.65.12.65.13.66.13.67.13.68.14.67.14.69.15.68.14.7.15.69.16.7.15.7.16.7.16.7.17.7.17.71.17.71.17.71.18.71.18.72.09.34.09.36.09.35.1.36.09.35.1.35.09.36.1.35.09.35.1.35.1.35.09.35.1.35.1.35.1.35.1.35.1.35.1.34.1.35.1.34.1.35.11.34.1.34.11.34.1.34.11.33.1.34.12.33.1.34.11.33.1.33.12.33.1.33.12.32.1.33.12.32.1.32.12.32.11.31.11.32.11.31.12.31.11.31.11.3.12.31.11.3.12.3.11.3.11.3.12.29.11.29.12.29.11.28.12.29.11.27.12.28.12.27.11.27.12.27.11.27.12.26.11.26.12.25.11.25.12.25.11.25.12.24.11.24.11.23.12.23.1.23.12.22.11.22.11.21.11.22.11.2.11.2.11.2.09.16h.04l.36.03.38.04.38.05.42.06.44.07.47.08.5.11.54.13.56.16.62.19.66.23.71.28.77.34.8.4.85.5.92.6.82.62.58.48.49.44.5.5.48.5.47.54.48.6.44.6.44.66.44.73.38.7.35.73.33.8.28.8.25.8.21.81.17.8.13.82.08.8.05.78.01.76-.01.74-.05.72-.08.7-.1.67-.12.62-.13.6-.15.57-.17.57-.17.52-.18.49-.18.46-.23.53-.34.71-.39.73-.38.65-.38.6-.37.53-.36.48-.35.44-.34.4-.33.37-.32.35-.3.32-.3.3-.3.28-.28.26-.28.26-.28.24-.36.31-.5.4-.6.44-.62.42-.78.48-1.05.56-1.23.53-1.2.42-1.1.3-1.05.2-.96.15-.83.07-.76.04h-.69l-.6-.01-.54-.04-.47-.04-.39-.04-.2-.03h-.13l-.33-.03-.31-.03-.33-.03-.33-.04-.24-.03-.03.02-.33.13-.33.14-.32.13-.33.13-.32.13-.33.13-.32.13-.32.12-.32.12-.32.13-.32.12-.32.11-.32.12-.32.12-.31.11-.31.11-.32.11-.32.12-.6.21-.63.21-.6.21-.62.2-.6.2-.6.2-.6.19-.58.19-.59.18-.57.18-.58.18-.57.18-1.11.35-1.1.34-1.08.33-.53.17-.52.16-.52.16-.51.17-.5.16-.5.16-.5.16-.48.16-.48.16-.47.16-.46.16-.47.16-.22.08-.22.08-.22.08-.22.08-.22.08-.22.08-.21.08-.22.08-.21.08-.21.08-.2.08-.22.08-.2.08-.2.09-.2.08-.2.08-.2.08-.2.08-.19.09-.19.08-.19.08-.19.08-.18.09-.19.08-.18.08-.18.09-.18.08-.17.08-.18.09h-.02l-.08.07-.15.1-.16.12-.2.13-.2.15-.22.16-.23.17-.26.19-.26.2-.28.2-.29.22-.3.22-.63.48-.67.52-.7.54-.75.57-.77.6-.8.6-1.67 1.3-1.75 1.36-1.81 1.41-.93.72-.94.72-.94.73-.96.73-.96.74-.96.73-.95.72-.49.37-.48.36-.48.36-.48.36-.48.36-.48.36-.48.35-.47.35-.48.35-.47.34-.47.35-.47.33-.47.34-.47.33-.46.33-.46.33-.46.32-.46.32-.45.31-.46.31-.45.3-.45.3-.44.3-.45.3-.45.29-.44.28-.45.28-.43.27-.24.15-.22.13-.22.14-.23.13-.22.13-.23.14-.23.13-.23.13-.23.13-.23.13-.24.13-.24.13-.24.12-.24.13-.25.13-.25.13-.25.12-.27.13-.27.13-.27.12-.28.13-.3.13-.3.13-.31.13-.33.12-.33.13-.36.13-.37.13-.4.12-.42.13-.44.12-.47.12-.51.12-.55.11-.59.1-.64.1-.7.06-.67.05-.48.01h-.88l-.48-.02-.47-.03-.51-.05-.54-.06-.53-.09-.58-.1-.6-.13-.6-.16-.64-.2-.65-.21-.68-.26-.68-.3-.7-.34-.71-.39-.68-.4-.68-.47-.7-.5-.68-.57-.62-.57-.62-.62-.6-.67-.54-.67-.51-.7-.47-.7-.42-.72-.38-.72-.35-.75-.3-.7-.25-.7-.22-.7-.18-.67-.16-.64-.12-.64-.1-.6-.07-.58-.05-.56-.03-.54-.02-.52v-.95l.03-.46.03-.42.04-.41.04-.4.06-.37.05-.36.06-.34.07-.34.08-.38.12-.53.15-.55.15-.52.16-.48.15-.45.16-.43.16-.4.16-.4.17-.36.15-.36.16-.34.17-.33.16-.33.16-.31.16-.31.17-.3.16-.3.17-.3.17-.28.13-.24.46-.73.5-.72.53-.69.57-.66.6-.62.64-.6.66-.56.7-.53.71-.5.74-.45.77-.42.78-.37.8-.34.82-.3.84-.24.84-.21.86-.16.86-.12.87-.08.87-.03.87.01.5.04.15-.12.41-.3.42-.3.42-.31.42-.32.43-.31.44-.33.43-.32.44-.33.44-.34.44-.33.9-.68.9-.69.91-.69.91-.7.9-.7.91-.7.9-.7 1.8-1.38 1.75-1.36 1.69-1.32.83-.64.8-.62.79-.6.77-.6.74-.56.72-.55.37-.27.34-.26.35-.26.34-.25.33-.25.33-.24.33-.24.32-.23.32-.23.32-.22.32-.23.32-.22.33-.22.33-.22.35-.22.33-.22.22-.13.2-.12.2-.12.23-.14.24-.13.26-.14.28-.15.25-.13.38-.2.33-.16.33-.16.34-.16.33-.16.33-.15.33-.16.33-.15.33-.15.33-.14.33-.15.32-.14.33-.14.32-.14.33-.14.32-.13.33-.14.32-.13.32-.13.32-.12.32-.13.32-.12.32-.13.32-.12.32-.12.31-.12.32-.11.31-.12.32-.11.3-.11.32-.12.32-.1.6-.22.62-.21.61-.2.6-.21.6-.2.6-.2.6-.19.58-.18.59-.19.57-.18.04-.01-.02-.04-.17-.4-.17-.39-.17-.4-.16-.39-.17-.4-.16-.39-.16-.4-.16-.4-.16-.4-.16-.4-.16-.4-.16-.4-.15-.4-.15-.4-.16-.4-.15-.41-.15-.41-.15-.4-.15-.42-.14-.4-.15-.41-.14-.41-.14-.41-.15-.41-.14-.41-.14-.42-.14-.41-.14-.41-.13-.42-.14-.41-.13-.42-.14-.41-.13-.42-.13-.41-.13-.42-.13-.42-.13-.41-.13-.42-.12-.42-.13-.42-.12-.41-.13-.42-.12-.42-.12-.42-.12-.42-.12-.41-.12-.42-.12-.42-.12-.42-.11-.42-.12-.42-.11-.42-.12-.42-.1-.41-.12-.42-.11-.42-.1-.42-.12-.41-.1-.42-.11-.42-.21-.83-.2-.83-.21-.83-.2-.82-.2-.83-.19-.82-.19-.81-.18-.82-.18-.81-.18-.8-.17-.81-.17-.8-.17-.8-.16-.79-.16-.78-.16-.78-.15-.78-.15-.77-.14-.76-.14-.76-.14-.75-.13-.74-.13-.74-.13-.73-.12-.73-.12-.71-.11-.71-.11-.7-.11-.7-.1-.68-.1-.68-.1-.66-.1-.66-.08-.65-.09-.65-.08-.63-.07-.63-.08-.61-.07-.6-.06-.6-.07-.6-.05-.57-.06-.57-.05-.57-.05-.55-.04-.55-.02-.32-.2-.44-.23-.55-.21-.56-.2-.57v-.02l-.2-.64-.16-.66-.14-.66-.11-.66-.1-.71-.06-.71-.03-.71v-.72l.03-.7v-.01l.07-.85.12-.84.16-.84.2-.83.24-.81.28-.8.32-.8.36-.76.41-.77.45-.75.49-.73.52-.7.56-.66.6-.64.62-.61.66-.57.68-.55.71-.5.74-.47.76-.43.78-.39.8-.34.82-.31.83-.26.84-.22.85-.18.86-.13.87-.1.87-.03h.87zM928.19 428.93h.38l.38.01.38.01.38.01.38.02.37.01.38.02.37.02.38.02.37.02.37.02.37.03.37.03.37.03.37.04.37.03.36.04.37.04.36.04.37.05.36.04.36.05.36.06.36.05.36.06.36.05.35.06.36.07.36.06.35.07.35.07.36.07.35.08.35.08.35.07.35.09.34.08.35.09.35.09.34.09.34.1.35.09.34.1.34.1.34.1.34.11.33.11.34.11.33.12.34.11.33.12.33.12.33.13.33.13.33.12.32.14.33.13.32.14.33.14.32.14.32.15.31.14.32.15.32.16.31.15.31.16.31.16.31.16.31.17.3.17.31.17.3.17.3.18.3.18.3.18.3.18.3.19.28.19.3.2.28.18.29.2.28.2.28.2.29.2.27.2.28.22.27.2.28.22.27.22.26.21.27.22.26.23.27.22.25.23.26.23.25.23.25.23.24.23.26.24.24.24.24.24.24.24.23.25.25.25.23.25.22.24.23.26.22.25.22.26.22.25.22.26.2.26.22.26.21.27.2.26.2.27.2.27.2.27.2.27.19.27.2.27.17.28.2.27.17.28.18.28.18.28.17.27.17.29.16.28.16.28.17.28.15.29.17.28.15.29.15.29.15.28.14.29.15.3.14.28.13.29.14.3.14.28.13.3.13.29.12.29.12.3.12.29.12.3.11.29.11.29.11.3.11.3.11.29.1.3.1.29.1.3.1.3.09.3.09.29.09.3.09.3.08.29.08.3.08.3.08.3.07.29.08.3.06.3.07.3.08.3.07.3.06.29.06.3.05.3.06.3.06.3.05.29.05.3.05.3.04.29.05.3.04.3.04.3.04.29.04.3.03.3.04.29.03.3.03.3.03.3.02.28.03.3.02.3.02.3.02.29.02.3.02.29.01.3.02.29.01.29.01.3.01.29.01.3v.29l.01.29v1.76l-.02.29v.29l-.02.3v.29l-.02.28v.3l-.02.29-.02.29-.02.29-.02.29-.02.29-.02.29-.02.29-.02.29-.03.28-.02.3-.03.28-.03.3-.03.28-.03.29-.04.28-.03.3-.03.28-.04.29-.04.28-.03.29-.04.29-.05.28-.04.29-.04.28-.05.29-.04.28-.05.29-.04.29-.05.28-.05.28-.05.29-.06.28-.06.29-.05.28-.06.28-.05.29-.06.28-.06.28-.06.28-.06.28-.06.29-.06.28-.07.28-.06.28-.07.28-.06.28-.07.28-.07.28-.07.28-.07.28-.07.28-.07.28-.08.28-.08.28-.08.28-.07.27-.08.28-.08.28-.08.28-.08.27-.08.28-.08.28-.08.27-.1.28-.07.28-.1.27-.07.27-.1.28-.08.28-.1.27-.09.29-.18.53-.18.55-.19.54-.2.55-.2.54-.2.54-.2.54-.2.54-.22.54-.21.54-.22.53-.21.54-.23.53-.23.53-.23.53-.23.53-.23.53-.24.52-.24.53-.25.52-.25.52-.25.52-.25.52-.25.52-.27.51-.26.52-.27.5-.26.52-.27.5-.28.52-.28.5-.27.5-.28.5-.3.5-.28.5-.29.5-.29.5-.3.5-.3.48-.29.5-.3.48-.31.48-.3.49-.32.48-.3.48-.33.47-.31.48-.33.47-.32.47-.33.47-.32.46-.34.47-.33.46-.34.46-.34.46-.34.45-.34.45-.35.45-.34.45-.36.44-.35.44-.36.44-.35.44-.37.43-.36.43-.37.43-.36.42-.19.22-.19.21-.18.21-.2.21-.18.21-.19.21-.19.2-.19.21-.19.2-.19.22-.2.2-.18.2-.2.2-.2.21-.19.2-.2.2-.19.2-.2.2-.19.2-.2.2-.2.2-.2.2-.2.19-.2.2-.2.19-.2.19-.2.2-.2.19-.21.19-.2.18-.21.2-.2.18-.21.19-.21.19-.21.18-.2.19-.22.18-.21.19-.21.18-.22.18-.2.18-.22.18-.22.18-.21.18-.22.17-.22.18-.21.17-.22.18-.22.17-.22.17-.22.17-.22.17-.23.17-.22.17-.3.22-.3.22-.3.23-.3.22-.3.22-.3.21-.3.22-.3.22-.3.2-.3.22-.3.22-.3.2-.3.22-.3.2-.31.22-.3.2-.3.21-.31.2-.3.21-.3.2-.31.2-.31.21-.3.2-.3.2-.31.2-.31.2-.3.2-.31.2-.3.19-.32.2-.3.18-.31.2-.3.19-.32.19-.3.19-.31.19-.31.18-.3.2-.32.18-.3.18-.32.19-.3.18-.32.18-.3.18-.32.19-.3.18-.32.17-.32.19-.61.35-.62.35-.63.34-.62.35-.63.34-.63.34-.62.33-.63.33-.63.33-.63.32-.62.33-.63.31-.64.32-.63.31-.63.31-.63.3-.63.31-.63.3-.64.3-.63.3-.63.3-.64.28-.63.29-.64.28-.63.29-.64.28-.64.28-.63.27-.64.27-.64.27-.63.27-.64.27-.64.26-.63.26-.64.26-.64.26-.64.25-.64.26-.64.25-.64.25-.63.24-.64.25-.64.24-.64.24-.64.24-.64.24-.64.24-.64.23-.64.23-.64.23-.64.23-.64.23-.64.23-.64.22-.64.23-.64.22-.64.22-.64.22-.64.21-.63.22-.64.22-.64.21-.64.21-.64.21-.64.22-.64.2-.64.21-.63.21-.64.2-.64.21-.64.2-.64.21-1.27.4-1.27.4-1.28.4-1.27.4-1.27.4-1.27.39-1.27.39-1.27.39-2.52.77-2.53.77-2.52.76-1.26.39-1.36.41-.33.1-.38.1-.32.08-.28.07-.26.06-.24.06-.23.04-.24.05-.42.09-.43.08-.45.08-.45.09-.48.08-.48.09-.51.08-.53.1-1.1.18-1.18.2-2.53.41-1.34.22-1.38.23-1.4.23-.7.12-.72.12-.7.13-.72.12-.7.12-.7.13-.7.12-.7.13-.69.12-.67.13-.67.12-.65.12-.64.13-.62.12-.6.12-.6.12-.28.06-.28.06-.27.06-.27.06-.25.05-.25.06-.25.05-.23.06-.23.05-.23.05-.2.05-.2.05-.1.03-.7.4-.9.45-.95.4-.96.34-.98.28-1 .23-1 .16-1.02.1-1.02.04-1.02-.02-1.02-.08-1-.15-1-.2-1-.27-.96-.32-.95-.39-.92-.43-.9-.5-.86-.54-.18-.14-.32.36-.5.5-.4.4-.35.3-.4.35-.46.37-.5.37-.56.4-.64.4-.71.4-.81.42-.91.4-1.01.37-1.12.34-1.26.28-1.36.19-.72.04-.77.03-.76-.01h-.02l-.76-.04-.76-.08h-.02l-.8-.12-.8-.16h-.01l-.8-.2-.77-.23h-.02l-.74-.27-.73-.3H791l-.75-.35-.72-.38-.65-.36-.62-.41-.83-.6-.8-.64-.75-.7-.7-.73-.67-.77-.61-.82-.57-.85-.51-.88-.46-.92-.4-.93-.35-.97-.28-.97-.23-1-.17-1-.1-1.02-.04-1.02.01-1.03.08-1.01.15-1.01.2-1 .26-1 .32-.96.38-.95.44-.92.49-.9.54-.86.6-.83.28-.35.01-.04.11-.27.12-.28.11-.3.12-.3.12-.31.13-.33.12-.33.13-.34.12-.34.13-.34.13-.35.13-.35.12-.36.13-.35.12-.35.13-.35.12-.35.12-.35.11-.34.12-.33.11-.34.1-.32.11-.3.2-.62.19-.56.16-.5.14-.46.06-.19.06-.18.04-.15.03-.09.05-.22.07-.33.08-.32.07-.33.08-.33.07-.33.08-.32.08-.33.08-.33.08-.32.08-.33.08-.33.09-.32.08-.33.09-.32.08-.33.1-.32.08-.33.09-.33.09-.32.1-.32.08-.33.1-.32.1-.33.09-.32.1-.32.09-.33.1-.32.1-.32.1-.32.1-.33.1-.32.1-.32.11-.32.1-.33.11-.32.11-.32.11-.32.11-.32.11-.32.11-.32.12-.32.11-.32.12-.32.11-.32.12-.32.12-.32.12-.32.12-.31.12-.32.12-.32.13-.32.12-.32.13-.31.13-.32.13-.32.13-.31.13-.32.13-.32.13-.31.13-.32.14-.31.14-.32.13-.31.14-.31.14-.32.14-.31.15-.32.14-.31.14-.31.15-.32.15-.3.14-.32.15-.31.15-.31.15-.32.16-.3.15-.32.15-.3.16-.32.16-.3.16-.32.16-.3.16-.32.16-.3.16-.31.17-.31.16-.3.17-.31.17-.31.17-.3.17-.31.17-.31.17-.3.18-.31.17-.3.18-.31.17-.3.18-.3.18-.31.18-.3.19-.3.18-.31.18-.3.19-.3.19-.3.18-.3.2-.31.18-.3.2-.3.2-.3.18-.3.2-.3.2-.3.2-.3.2-.3.2-.3.2-.29.2-.3.2-.3.2-.29.21-.3.21-.29.21-.3.21-.29.21-.3.21-.29.26-.35.25-.34.26-.35.26-.35.26-.35.26-.36.26-.35.27-.35.26-.35.27-.35.27-.36.27-.35.27-.36.28-.35.28-.36.27-.35.28-.36.28-.35.29-.36.28-.36.29-.36.29-.35.29-.36.29-.36.29-.36.3-.36.29-.36.3-.36.3-.36.3-.36.3-.37.3-.36.3-.36.31-.36.31-.37.31-.36.31-.36.32-.36.31-.37.32-.36.31-.36.32-.37.32-.36.33-.37.32-.36.33-.37.32-.36.33-.37.33-.36.33-.37.33-.36.34-.37.33-.36.34-.37.34-.37.34-.36.34-.37.34-.36.34-.37.35-.36.35-.37.34-.37.35-.36.36-.37.35-.36.35-.37.36-.36.35-.37.36-.36.36-.37.36-.36.36-.37.37-.36.36-.37.37-.36.37-.36.37-.37.37-.36.37-.36.37-.36.38-.37.37-.36.38-.36.38-.36.38-.36.38-.36.38-.36.38-.36.39-.36.38-.36.39-.36.39-.36.39-.36.39-.36.4-.36.39-.35.39-.36.4-.35.4-.36.4-.35.4-.36.4-.35.4-.35.4-.36.4-.35.4-.35.41-.35.41-.35.41-.35.41-.35.42-.35.4-.35.42-.34.42-.35.41-.35.42-.34.42-.34.42-.35.42-.34.42-.34.43-.34.42-.34.43-.34.42-.34.43-.34.43-.33.43-.34.43-.33.43-.34.44-.33.43-.33.44-.33.43-.33.44-.33.44-.33.44-.33.44-.33.44-.32.45-.32.44-.33.45-.32.44-.32.45-.32.45-.32.45-.32.45-.31.45-.32.45-.31.46-.32.45-.3.46-.32.45-.3.46-.32.46-.3.46-.3.46-.31.46-.3.47-.3.46-.3.46-.3.47-.3.47-.3.46-.3.47-.29.47-.3.48-.28.47-.3.47-.28.47-.29.48-.28.47-.28.48-.29.48-.28.48-.28.48-.27.48-.28.48-.27.48-.27.48-.28.49-.26.48-.27.49-.27.49-.26.48-.26.5-.26.48-.26.5-.26.49-.26.49-.25.5-.25.49-.25.5-.25.49-.25.5-.24.5-.24.5-.24.5-.24.5-.24.5-.23.5-.24.5-.23.5-.23.51-.22.5-.23.52-.22.5-.22.51-.22.51-.22.52-.21.5-.21.52-.21.51-.21.52-.2.51-.21.52-.2.52-.2.51-.2.52-.2.52-.18.53-.2.52-.18.52-.18.52-.19.53-.18.52-.17.53-.18.52-.17.53-.17.53-.17.53-.16.53-.17.53-.16.53-.15.53-.16.54-.15.53-.15.54-.15.53-.14.54-.14.54-.14.54-.13.54-.14.54-.13.54-.12.54-.13.54-.12.54-.12.55-.11.54-.11.55-.11.55-.1.54-.11.55-.1.55-.1.55-.1.54-.08.43-.07.42-.06.42-.07.42-.06.41-.06.42-.05.41-.06.42-.05.4-.06.42-.05.4-.04.42-.05.4-.04.4-.04.41-.05.4-.03.4-.04.4-.03.4-.04.4-.03.4-.02.4-.03.4-.02.4-.03.39-.02.39-.01.4-.02.38-.01.4-.02h.38l.39-.02h1.92zm-92.03 141.14l.03-.07.02-.06-.05.13zm.48-1.37l-.06.18.09-.24.13-.54-.16.6zm.3-1.1l.1-.44.07-.44-.18.88zm.32-1.9l-.15 1.01.19-1.18.04-.84-.08 1.02zm-31.9-14.1l.9.49.86.54-.6-.4-1.33-.74-.62-.26.79.37zm-1.87-.82l.79.32-.55-.24-.35-.11.1.03zm-1.04-.34l-.23-.07-.33-.07.56.14zm-1.65-.39l-.15-.03h-.04l.2.03zm126.72-87.31H926.68l-.22.02h-.21l-.22.01h-.23l-.22.02-.23.01-.23.01-.23.02-.24.01-.24.02-.23.02-.25.02-.24.02-.25.02-.25.03-.25.02-.26.03-.26.02-.26.03-.26.03-.27.04-.26.03-.28.04-.27.03-.27.04-.28.04-.28.04-.28.04-.29.05-.28.04-.36.06-.36.06-.36.07-.35.06-.36.07-.36.07-.36.07-.36.07-.36.08-.36.08-.36.08-.37.08-.36.09-.36.09-.37.08-.36.1-.37.09-.37.1-.36.1-.37.1-.37.1-.37.1-.37.11-.37.11-.37.11-.37.12-.37.11-.38.12-.37.12-.37.12-.38.13-.37.12-.38.13-.37.13-.38.14-.37.13-.38.14-.38.14-.37.14-.38.14-.38.15-.38.14-.38.15-.38.16-.38.15-.37.15-.38.16-.38.16-.39.16-.38.17-.38.16-.38.17-.38.17-.38.17-.38.17-.38.18-.39.17-.38.18-.38.18-.38.19-.39.18-.38.19-.38.18-.38.2-.39.19-.38.19-.38.2-.39.2-.38.2-.38.2-.39.2-.38.2-.38.2-.39.21-.38.21-.38.21-.38.22-.39.21-.38.22-.38.22-.38.21-.39.22-.38.23-.38.22-.38.23-.38.22-.38.23-.39.23-.38.24-.38.23-.38.23-.38.24-.38.24-.38.24-.38.24-.38.24-.38.25-.37.24-.38.25-.38.24-.38.25-.38.25-.37.26-.38.25-.37.25-.38.26-.37.26-.38.26-.37.26-.38.26-.37.26-.37.26-.38.27-.37.26-.37.27-.37.27-.37.27-.37.27-.37.27-.37.27-.37.28-.36.27-.37.28-.37.27-.36.28-.37.28-.36.28-.37.28-.36.29-.36.28-.37.28-.36.29-.36.28-.36.29-.36.29-.35.29-.36.29-.36.29-.35.29-.36.29-.36.3-.35.29-.35.3-.35.29-.36.3-.35.29-.35.3-.35.3-.34.3-.35.3-.35.3-.34.3-.35.3-.34.3-.35.3-.34.3-.34.3-.34.31-.34.3-.34.31-.33.3-.34.31-.34.31-.33.3-.34.31-.33.31-.33.31-.33.31-.33.3-.33.32-.32.31-.33.31-.33.31-.32.31-.32.31-.33.32-.32.3-.32.32-.31.31-.32.32-.32.3-.31.32-.32.32-.31.3-.31.32-.31.32-.31.31-.31.31-.3.32-.31.31-.3.32-.31.31-.3.32-.3.31-.3.31-.3.32-.3.31-.3.32-.29.31-.3.32-.28.3-.3.32-.28.32-.29.31-.29.31-.28.32-.29.31-.28.31-.28.32-.28.3-.28.32-.27.31-.28.31-.27.31-.27.31-.27.32-.27.3-.27.32-.27.3-.26.31-.27.31-.26.3-.26.32-.26.3-.25.31-.26.3-.26.31-.25.3-.25.31-.25.3-.25.3-.24.31-.25.3-.24.3-.24.3-.24.3-.24.3-.24.3-.23.3-.23.3-.24.3-.22.29-.23.3-.23.29-.22.29-.23.3-.22.28-.22.3-.22.28-.21.29-.21.29-.22.28-.2.29-.22.28-.2.29-.2.27-.15.21-.15.2-.15.2-.14.21-.14.2-.14.2-.15.21-.14.2-.13.2-.14.21-.14.2-.13.2-.14.21-.13.2-.14.2-.13.21-.13.2-.13.21-.13.2-.13.2-.13.21-.12.2-.13.2-.12.21-.13.2-.12.21-.12.2-.12.21-.12.2-.12.2-.12.21-.12.2-.11.21-.12.2-.11.21-.12.2-.11.21-.11.2-.12.22-.1.2-.12.2-.1.21-.11.2-.11.22-.1.2-.11.2-.1.22-.11.2-.1.2-.1.22-.11.2-.1.21-.1.21-.1.2-.1.22-.1.2-.1.21-.1.22-.09.2-.1.21-.09.21-.09.21-.1.21-.09.22-.09.2-.09.22-.09.2-.09.22-.09.21-.08.21-.1.22-.08.21-.08.21-.09.21-.08.22-.09.21-.08.22-.08.21-.08.22-.08.21-.08.22-.08.22-.08.21-.08.22-.08.22-.08.21-.07.22-.08.22-.07.22-.08.22-.07.22-.05.14.14-.03.36-.07.35-.08.36-.08.36-.07.36-.08.72-.15.73-.14.74-.15.75-.14.75-.15.76-.14.76-.14.76-.14.76-.14.77-.13.76-.14.76-.13.76-.13.75-.13.75-.13.75-.12 1.45-.25 1.41-.23 1.36-.23 2.52-.41 1.13-.19 1.04-.17.46-.08.44-.08.4-.07.37-.06.31-.06.27-.05.16-.03.73-.22 1.28-.4 2.53-.76 2.52-.77 2.5-.76 1.24-.38 1.23-.38 1.24-.38 1.22-.38 1.22-.38 1.22-.38 1.21-.39 1.21-.38.6-.2.6-.18.6-.2.6-.19.59-.2.59-.19.6-.19.58-.2.6-.19.58-.2.59-.2.58-.19.58-.2.59-.2.58-.2.58-.2.57-.2.58-.2.57-.2.58-.2.57-.2.57-.2.56-.21.57-.2.56-.21.57-.21.56-.21.56-.21.56-.21.56-.21.55-.22.56-.21.55-.22.55-.21.55-.22.54-.22.55-.22.54-.22.54-.22.54-.22.54-.23.54-.22.53-.23.54-.23.53-.23.53-.23.53-.23.53-.24.52-.23.52-.24.53-.24.52-.24.51-.24.52-.25.52-.24.5-.25.52-.25.51-.25.5-.25.51-.25.5-.26.51-.25.5-.26.5-.26.5-.27.5-.26.49-.27.5-.27.48-.27.49-.27.49-.27.5-.28.23-.14.24-.14.24-.14.24-.14.24-.14.24-.14.24-.14.24-.14.24-.15.24-.14.23-.14.24-.15.24-.14.24-.15.23-.15.24-.14.23-.15.24-.15.23-.15.24-.14.23-.15.23-.15.24-.15.23-.16.23-.15.24-.15.22-.15.23-.16.24-.15.23-.16.23-.15.23-.16.22-.16.23-.15.23-.16.23-.16.23-.16.22-.16.23-.16.23-.16.22-.16.23-.17.22-.16.23-.16.22-.17.22-.16.23-.17.22-.16.1-.08.1-.07.1-.08.1-.08.1-.08.1-.08.1-.08.1-.08.1-.08.1-.09.1-.08.11-.09.1-.08.11-.1.1-.08.11-.1.1-.08.11-.1.1-.1.12-.09.1-.09.1-.1.12-.1.1-.1.11-.1.1-.1.12-.1.1-.1.11-.1.11-.11.11-.1.11-.11.11-.11.1-.1.12-.12.11-.11.11-.11.11-.11.11-.12.11-.11.11-.12.11-.11.12-.12.1-.12.12-.12.1-.12.12-.12.11-.12.11-.13.11-.12.11-.12.11-.13.12-.12.1-.12.23-.27.22-.26.22-.26.23-.27.22-.27.22-.27.22-.28.22-.28.22-.28.22-.28.22-.29.21-.29.22-.3.22-.29.21-.3.22-.3.21-.3.21-.3.21-.3.22-.32.2-.31.21-.31.2-.32.21-.32.2-.32.21-.32.2-.32.2-.33.2-.33.2-.32.2-.33.19-.33.19-.34.19-.33.19-.34.18-.34.19-.33.18-.34.18-.34.18-.35.18-.34.17-.34.18-.35.17-.34.17-.35.16-.34.17-.35.16-.35.16-.35.16-.34.15-.35.16-.35.15-.35.15-.35.14-.35.15-.35.14-.35.14-.35.13-.34.14-.35.13-.35.13-.35.12-.34.13-.35.12-.35.12-.34.12-.36.05-.16.05-.17.06-.17.05-.17.06-.17.05-.17.05-.17.05-.17.06-.17.05-.17.05-.17.05-.17.04-.17.05-.16.05-.17.04-.17.05-.16.05-.17.04-.16.04-.17.04-.17.05-.16.04-.17.04-.16.04-.16.04-.17.03-.16.04-.16.04-.16.03-.16.04-.16.03-.16.04-.16.03-.16.03-.16.04-.16.03-.15.03-.16.03-.16.02-.15.03-.16.03-.15.03-.16.02-.15.03-.15.02-.15.03-.15.02-.15.02-.15.02-.15.02-.15.02-.15.02-.14.02-.15.02-.14.01-.15.02-.14.02-.15.01-.14.01-.14.02-.14.01-.14.01-.13.02-.14v-.14l.02-.14v-.13l.01-.13.01-.14v-.13l.02-.13v-.26l.01-.13v-.25l.01-.13V470.88l-.01-.11v-.12l-.01-.11v-.1l-.01-.12v-.1l-.02-.11V470l-.01-.1-.01-.1-.01-.11-.01-.1-.01-.1-.01-.1-.01-.1-.01-.1-.02-.1V469l-.02-.09-.01-.09-.02-.1-.01-.08-.02-.09-.01-.09-.02-.08-.01-.09-.02-.08-.01-.08-.02-.08-.02-.08-.01-.08-.02-.07-.02-.08-.02-.08-.01-.07-.02-.07-.02-.07-.02-.07-.02-.07-.02-.07-.02-.06-.02-.06-.02-.07-.02-.06-.01-.06-.02-.06-.02-.06-.02-.06-.02-.05-.02-.06-.02-.05-.02-.06-.02-.05-.02-.05-.02-.04-.02-.05-.03-.05-.01-.05-.02-.04-.03-.05-.01-.04-.03-.04-.02-.04-.01-.04-.02-.04-.02-.04-.02-.04-.02-.03-.02-.04-.02-.04-.02-.03-.02-.03-.02-.04-.02-.02-.02-.04-.02-.03-.02-.03-.02-.03-.02-.03-.01-.02-.02-.03-.02-.03-.02-.02-.02-.03-.02-.02-.02-.03-.02-.02-.01-.03-.02-.02-.02-.02-.02-.03-.02-.02-.02-.02-.02-.02-.02-.02-.02-.03-.02-.02-.02-.02-.02-.02-.02-.02-.02-.03-.02-.02-.03-.02-.02-.02-.02-.02-.03-.02-.02-.02-.03-.02-.02-.03-.03-.02-.02-.02-.03-.02-.03-.02-.02-.03-.03-.02-.03-.02-.03-.02-.04-.03-.03-.02-.03-.02-.04-.03-.03-.02-.04-.02-.04-.03-.03-.02-.04-.03-.05-.02-.04-.03-.04-.02-.05-.03-.04-.03-.05-.02-.05-.03-.05-.02-.05-.03-.06-.03-.05-.03-.06-.02-.05-.03-.06-.03-.07-.03-.06-.02-.06-.03-.07-.03-.07-.03-.07-.03-.07-.03-.08-.03-.07-.02-.08-.03-.08-.03-.08-.03-.09-.03-.08-.03-.1-.03-.08-.02-.1-.03-.09-.03-.1-.03-.1-.03-.1-.02-.1-.03-.1-.03-.11-.03-.11-.02-.11-.03-.12-.03-.11-.02-.12-.03-.12-.02-.13-.03-.12-.02-.13-.02-.13-.03-.14-.02-.13-.02-.14-.02-.14-.02-.14-.02-.15-.02-.15-.02-.15-.02-.15-.02-.15-.02-.16-.01-.16-.02-.16-.01-.17-.02-.17-.01-.17-.01-.17-.01-.17-.02h-.18l-.18-.01-.18-.01-.19-.01h-.19l-.19-.01h-.39l-.2-.01h-.4z"/>
    <path fill="#8666B3" d="M675.24 448.43h.77l.26.01.25.01h.26l.25.02h.25l.26.02h.25l.25.02.27.02.49.03.5.03.5.04.5.04.5.05.5.05.49.05.5.06.49.06.49.06.49.07.49.07.49.07.48.07.5.08.48.08.48.08.48.09.49.09.48.09.48.1.48.09.48.1.47.1.48.1.47.1.48.1.47.12.47.1.47.12.47.12.47.11.47.12.46.12.47.12.46.12.47.13.46.13.46.12.46.13.46.13.45.14.46.13.45.13.45.14.45.14.45.14.45.14.45.14.44.14.45.14.44.15.44.14.44.15.44.14.43.15.44.15.43.15.43.15.43.15.43.15.42.15.42.15.42.15.42.16.42.15.41.15.42.16.4.15.42.15.4.16.4.15.4.16.4.15.4.16.4.15.4.16.38.15.39.16.4.16.74.3.75.31.74.3.73.31.71.3.7.3.7.3.68.3.66.3.65.28.64.29.62.28.61.27.6.28.6.27.6.29.6.28.61.29.6.3.6.28.61.3.6.3.6.3.61.3.6.31.6.32.6.3.6.33.6.31.6.33.6.32.6.33.6.33.6.33.59.34.6.34.59.34.6.34.58.35.6.35.58.35.6.36.58.35.59.36.58.37.59.37.58.36.59.38.58.37.58.38.57.38.58.38.58.39.57.39.57.39.57.4.58.4.56.4.57.4.56.4.57.4.56.42.56.41.55.42.55.41.29.22.28.21.27.22.28.21.27.21.28.22.27.21.27.22.28.22.27.21.27.22.27.22.27.22.28.22.27.22.26.22.27.23.27.22.27.22.27.23.26.22.27.23.27.23.26.22.27.23.26.23.26.23.27.23.26.23.26.23.26.24.26.23.26.24.26.23.25.24.26.23.26.24.26.24.25.24.26.24.25.24.25.24.26.24.25.24.25.24.25.25.25.24.25.25.25.24.25.25.24.25.25.25.25.25.24.25.24.25.25.25.24.25.24.25.24.26.24.25.24.26.24.25.24.26.24.26.23.26.24.26.23.26.24.26.23.26.23.26.23.26.23.27.23.26.23.27.23.27.22.26.23.27.23.27.22.27.22.27.23.27.22.27.22.27.22.28.22.27.21.28.22.28.22.27.21.28.21.28.22.28.21.28.2.28.22.28.2.28.22.29.2.28.2.29.21.28.2.3.2.28.21.29.2.29.2.29.2.29.2.29.2.3.19.29.19.3.2.29.18.3.2.29.18.3.19.3.19.3.18.3.19.3.18.3.18.3.18.3.18.31.18.3.18.32.17.3.18.31.17.31.17.31.17.31.17.31.17.32.16.31.17.32.16.31.17.32.16.31.16.32.15.32.16.32.16.32.15.32.15.33.16.32.14.32.15.33.15.32.15.33.14.33.14.33.14.33.14.33.14.33.13.33.14.33.1.27.05.1.02.06.03.07.04.1.05.1.05.12.07.13.06.14.08.15.08.16.09.18.1.18.1.2.1.2.11.2.12.21.12.22.13.23.13.24.14.24.14.24.15.25.15.26.16.26.16.27.16.27.17.27.17.28.17.28.18.29.18.29.19.29.18.3.2.3.19.3.2.3.2.3.19.3.2.32.2.3.22.32.2.31.22.32.21.31.21.32.22.32.22.32.22.32.22.32.22.32.22.32.23.32.22.31.23.33.22.31.23.32.22.32.23.32.23.31.23.32.22.31.23.31.23.31.22.3.45.62.45.6.45.6.44.59.43.57.44.57.2.27.21.27.21.26.2.27.2.26.2.25.2.25.2.25.2.24.18.24.19.23.18.22.18.22.18.22.17.2.17.21.16.2.16.19.16.18.14.18.15.17.14.16.13.15.13.15.12.13.03.04.33.23.83.66.79.71.74.76.69.81.64.85.58.89.53.92.47.95.4.98.35 1 .28 1.03.22 1.04.15 1.05.09 1.06.02 1.06-.05 1.06-.12 1.06-.18 1.04-.24 1.03-.31 1.02-.38 1-.43.96-.5.94-.55.9-.61.88-.66.83-.72.78-.76.74-.8.7-.85.64-.89.58-.92.53-.95.47-.98.4-1 .35-1.03.28h-.02l-1.03.22-1.03.15h-.02l-.96.08-.95.03h-.02l-.81-.02-.8-.05-.72-.07-1.3-.24-1.1-.27-.92-.3-.79-.3-.68-.29-.6-.28-.52-.27-.45-.26-.4-.24-.37-.22-.34-.22-.3-.21-.26-.19-.26-.19-.23-.17-.26-.2-.35-.28-.35-.3-.12-.11-.22.35-.62.86-.67.83-.72.78-.76.73-.82.68-.85.64-.9.57-.92.52-.95.46-.99.4-1 .34-1.03.27-1.04.21-1.05.14-1.06.08h-1.07l-1.06-.05-1.05-.12-1.04-.2-1.04-.25-.56-.18-.13-.03-.17-.04-.2-.05-.22-.05-.25-.06-.27-.06-.3-.07-.32-.07-.35-.08-.38-.08-.39-.1-.42-.08-.45-.1-.46-.1-.5-.1-.51-.1-.55-.12-.56-.12-.59-.12-.61-.12-.64-.13-.67-.13-.69-.14-.71-.14-.74-.14-.76-.15-.8-.15-.8-.15-.85-.16-.87-.16-.89-.17-.92-.17-.94-.17-.98-.18-1-.18-1.02-.18-1.05-.2-1.08-.18-1.1-.2-1.14-.2-1.16-.2-1.19-.2-1.21-.2-1.25-.22-1.27-.21-1.3-.22-1.33-.22-1.35-.22-1.39-.23-1.41-.23-1.45-.23-1.47-.24-1.5-.24-1.53-.24-.72-.12-.71-.1-1.45-.23-1.45-.22-1.45-.23-1.47-.22-1.48-.22-2.97-.45-1.5-.22-1.5-.23-1.52-.23-1.51-.23-1.52-.24-.77-.12-.77-.12-.76-.12-.77-.12-.77-.13-.77-.12-.77-.13-.78-.13-.77-.12-.78-.14-.77-.13-.78-.13-.78-.14-.78-.14-.78-.13-.78-.15-.78-.14-.78-.14-.78-.15-.79-.15-.78-.15-.79-.15-.78-.16-.8-.16-.78-.16-.79-.16-.78-.17-.8-.17-.78-.17-.8-.17-.78-.18-.8-.18-.78-.18-.8-.19-.78-.19-.8-.19-.78-.2-.4-.1-.4-.1-.4-.1-.39-.1-.4-.1-.39-.1-.4-.1-.4-.11-.39-.1-.4-.12-.39-.1-.4-.11-.39-.11-.4-.11-.4-.12-.39-.1-.4-.12-.39-.12-.4-.11-.39-.12-.4-.12-.39-.12-.4-.12-.39-.12-.4-.12-.39-.12-.4-.13-.39-.12-.4-.13-.39-.13-.39-.13-.4-.13-.39-.13-.4-.13-.39-.13-.39-.14-.4-.13-.39-.14-.39-.14-.4-.14-.38-.14-.4-.14-.39-.14-.4-.15-.38-.14-.4-.15-.39-.15-.39-.15-.39-.15-.4-.15-.38-.15-.4-.16-.38-.16-.4-.15-.38-.16-.4-.16-.38-.16-.39-.17-.39-.16-.39-.17-.38-.16-.4-.17-.38-.17-.39-.18-.38-.17-.39-.17-.39-.18-.38-.18-.39-.18-.38-.18-.39-.18-.38-.18-.38-.19-.39-.19-.38-.18-.38-.2-.39-.19-.38-.19-.38-.2-.38-.2-.38-.19-.38-.2-.38-.2-.38-.2-.38-.21-.37-.2-.38-.21-.38-.21-.38-.22-.37-.21-.38-.22-.37-.21-.38-.22-.37-.22-.37-.22-.37-.23-.38-.22-.37-.23-.37-.23-.37-.23-.37-.24-.36-.23-.37-.24-.37-.24-.37-.24-.36-.24-.37-.24-.36-.25-.36-.25-.37-.25-.36-.25-.36-.25-.36-.26-.36-.26-.36-.26-.36-.26-.35-.26-.36-.27-.36-.26-.35-.27-.35-.27-.36-.28-.35-.27-.35-.28-.35-.28-.35-.28-.35-.28-.34-.29-.35-.29-.35-.3-.22-.18-.22-.19-.22-.19-.22-.19-.21-.2-.22-.2-.21-.2-.21-.19-.21-.2-.21-.2-.21-.2-.2-.21-.21-.21-.2-.21-.2-.2-.2-.22-.2-.22-.2-.21-.19-.22-.2-.21-.18-.22-.2-.22-.18-.23-.18-.22-.19-.23-.18-.22-.18-.23-.18-.23-.17-.23-.17-.23-.18-.24-.17-.23-.16-.23-.17-.24-.16-.24-.17-.24-.16-.24-.15-.24-.16-.24-.15-.25-.15-.24-.15-.25-.15-.25-.15-.25-.14-.24-.14-.25-.14-.25-.13-.26-.14-.25-.13-.25-.13-.26-.13-.25-.12-.26-.13-.26-.11-.25-.12-.27-.12-.25-.11-.26-.12-.27-.1-.26-.11-.26-.1-.26-.1-.26-.1-.27-.1-.26-.1-.27-.1-.26-.09-.27-.09-.26-.08-.27-.09-.27-.08-.26-.08-.27-.07-.26-.08-.27-.07-.27-.07-.27-.07-.27-.07-.26-.06-.27-.07-.27-.05-.27-.06-.27-.06-.27-.05-.26-.05-.27-.05-.27-.05-.27-.04-.27-.04-.27-.04-.26-.04-.27-.04-.26-.03-.27-.03-.27-.03-.26-.03-.27-.03-.26-.02-.27-.02-.27-.02-.26-.02-.26-.02-.27-.01-.26-.02-.26v-.27l-.02-.26v-.52l-.01-.26v-1.3l.01-.26.01-.26.01-.25.02-.26v-.26l.02-.25.02-.26.02-.25.02-.26.02-.25.02-.25.03-.25.02-.25.03-.25.03-.26.03-.25.03-.24.04-.25.03-.25.04-.24.03-.25.04-.25.04-.24.04-.25.05-.24.04-.25.05-.23.04-.25.05-.24.05-.24.05-.24.05-.24.06-.24.05-.24.06-.24.05-.24.06-.23.06-.24.06-.24.06-.23.06-.23.06-.24.07-.23.07-.24.06-.23.07-.23.07-.23.07-.23.07-.23.07-.23.07-.23.08-.22.08-.25.14-.44.16-.44.16-.45.16-.45.17-.44.17-.45.17-.43.18-.44.18-.44.19-.43.18-.43.2-.43.19-.43.2-.42.2-.43.2-.42.2-.42.22-.41.2-.42.22-.41.22-.42.22-.4.23-.41.22-.4.23-.41.23-.4.23-.4.24-.4.24-.4.24-.4.24-.4.25-.38.25-.4.25-.38.25-.39.26-.38.25-.39.26-.38.27-.38.26-.38.27-.37.27-.38.27-.37.27-.37.27-.37.28-.37.28-.37.28-.37.28-.36.29-.36.28-.36.29-.36.29-.36.3-.35.29-.36.3-.35.29-.35.3-.35.3-.35.3-.34.3-.35.31-.34.3-.34.32-.34.3-.34.32-.33.31-.34.32-.33.32-.33.31-.33.32-.33.33-.32.32-.33.32-.32.33-.32.32-.32.33-.32.33-.31.33-.32.34-.3.33-.32.34-.3.33-.31.34-.31.34-.3.34-.3.34-.3.34-.3.35-.3.34-.3.35-.28.35-.3.35-.28.34-.3.36-.28.35-.28.35-.28.36-.28.35-.28.36-.27.35-.27.36-.28.36-.26.36-.27.37-.27.36-.26.36-.26.37-.26.36-.26.37-.25.37-.25.37-.26.37-.24.37-.25.37-.25.37-.24.38-.24.37-.24.38-.23.37-.23.38-.23.38-.23.38-.23.38-.22.38-.23.38-.21.39-.22.38-.22.39-.2.39-.22.38-.2.4-.2.38-.21.4-.2.39-.2.39-.2.4-.19.39-.18.4-.2.4-.18.4-.18.4-.18.4-.17.4-.17.4-.17.4-.17.41-.17.41-.16.41-.15.41-.16.41-.15.42-.15.41-.15.42-.14.42-.14.42-.13.42-.14.42-.13.43-.12.43-.12.43-.12.43-.12.43-.1.43-.11.44-.1.44-.1.44-.1.44-.09.45-.08.45-.09.43-.07.24-.04.23-.03.27-.04.27-.04.27-.04.27-.04.27-.03.27-.03.26-.03.27-.03.26-.02.27-.03.26-.02.27-.02.26-.02.27-.02.26-.02.26-.01.26-.02.27-.01.26-.01.26-.01h.26l.26-.02h.77l.26-.01h.51zm87.54 131.02l.42.16-.49-.19.07.03zm-.93-.4l.56.24-.74-.34.18.1zm-5.7-4.49l1.34 1.62 2.72 2 1.42.75-.9-.49-.9-.56-.87-.62-.82-.67-.78-.72-.73-.76-.49-.58.02.03zm-81.26-92.32h-.63l-.08.01h-.08l-.08.01h-.08l-.08.01h-.07l-.07.01h-.07l-.07.01h-.07l-.06.02h-.13l-.06.02h-.06l-.05.01h-.06l-.05.01-.05.01h-.04l-.02.01-.1.02-.1.02-.1.01-.1.03-.1.02-.1.02-.12.03-.12.03-.12.03-.13.03-.13.04-.13.04-.14.04-.14.04-.15.05-.15.04-.15.05-.15.06-.16.05-.16.06-.17.06-.16.06-.17.07-.17.07-.18.07-.18.07-.18.08-.18.08-.18.08-.19.08-.19.09-.19.08-.2.1-.19.09-.2.1-.2.1-.2.1-.2.1-.2.1-.2.11-.21.11-.2.11-.22.12-.2.12-.22.12-.21.12-.22.12-.21.13-.22.13-.22.13-.21.13-.22.14-.22.13-.22.14-.22.15-.23.14-.22.15-.22.14-.22.15-.23.16-.22.15-.23.16-.22.15-.22.16-.23.16-.22.17-.23.16-.23.17-.22.17-.23.17-.22.17-.23.17-.22.18-.23.18-.22.18-.23.18-.22.18-.22.18-.22.18-.23.2-.22.18-.22.19-.22.19-.22.19-.22.2-.22.19-.22.2-.22.19-.21.2-.22.2-.22.2-.2.2-.22.2-.21.2-.22.2-.2.21-.22.2-.2.21-.2.21-.22.21-.2.2-.2.22-.2.2-.2.22-.2.21-.2.22-.2.2-.2.22-.19.22-.19.21-.19.22-.19.21-.18.22-.19.21-.18.22-.19.22-.17.22-.18.21-.18.22-.17.22-.18.21-.17.22-.17.22-.16.22-.17.21-.16.22-.16.22-.16.22-.16.21-.15.22-.16.21-.15.22-.14.21-.15.22-.14.21-.14.22-.14.2-.14.22-.13.21-.14.21-.13.21-.12.21-.13.2-.12.21-.12.2-.12.21-.11.2-.11.2-.11.2-.11.2-.1.2-.1.2-.1.2-.1.2-.1.18-.1.2-.08.18-.09.19-.08.18-.08.19-.08.18-.08.17-.07.18-.07.18-.07.17-.07.17-.06.16-.06.17-.06.16-.05.16-.06.18-.02.06-.03.08-.02.07-.02.08-.03.07-.02.08-.02.07-.02.08-.02.07-.02.07-.02.07-.02.07-.02.07-.02.07-.02.07-.01.06-.02.07-.01.06-.02.07-.01.06-.02.07-.01.05-.01.07-.02.06v.06l-.02.05-.01.06-.01.07-.01.05v.05l-.02.06v.05l-.02.06v.1l-.02.05v.05l-.01.05v.04l-.01.05v.09l-.01.05v.04l-.01.04v.13l-.01.04V512.73l.01.03v.07l.01.02v.03l.01.03v.02l.01.03v.03l.01.01v.02l.01.03v.02l.01.02.01.02v.02l.01.01.01.02.02.03v.02l.02.01v.02l.02.01v.02l.02.02.02.02v.02l.02.02.01.01.01.02.02.01v.02l.02.01.01.02.02.01.01.02.02.02.01.02.02.02.02.02.02.02.02.02.02.02.02.02.02.03.03.02.02.02.03.03.02.02.03.03.03.03.03.02.03.03.04.03.03.03.04.03.04.04.2.18.23.18.22.18.22.18.22.18.22.18.23.17.22.18.23.17.22.18.23.17.23.17.23.17.23.17.23.17.23.17.23.16.24.17.23.16.24.17.23.16.24.16.24.16.24.16.24.16.24.16.24.16.24.15.25.16.24.15.25.16.24.15.25.15.25.15.25.15.25.15.25.15.25.15.26.14.25.15.25.15.26.14.26.14.25.14.26.15.26.14.26.14.26.14.27.13.26.14.26.14.27.13.27.14.26.13.27.13.27.14.27.13.27.13.27.13.27.13.28.13.27.12.28.13.27.13.28.12.28.13.28.12.28.12.28.13.28.12.28.12.29.12.28.12.29.12.28.12.3.11.28.12.29.12.29.11.29.11.3.12.28.11.3.11.3.11.29.11.3.11.29.11.3.11.3.11.3.1.3.11.3.11.3.1.3.11.3.1.31.1.3.1.31.11.3.1.32.1.3.1.31.1.31.1.32.1.3.1.32.1.31.09.32.1.31.09.32.1.31.09.32.09.32.1.32.08.32.1.32.08.32.1.32.08.32.1.33.08.32.09.32.09.33.08.33.09.32.08.33.09.33.08.33.09.33.08.32.08.67.17.66.16.67.16.67.16.67.15.68.15.67.16.68.15.69.14.68.15.69.14.69.15.69.14.7.14.69.14.7.13.7.14.7.13.7.13.7.13.7.13.72.13.7.13.72.12.71.13.72.12.72.12.72.13.72.12.72.12.72.11.73.12.72.12.73.11.73.12.73.12.73.1 1.47.24 1.47.22 1.47.23 1.48.22 1.48.22 2.98.45 1.49.22 1.5.23 1.49.23 1.5.23 1.49.23.75.12.75.11 1.57.25 1.54.25 1.5.24 1.48.24 1.45.23 1.42.24 1.4.23 1.36.22 1.34.23 1.3.22 1.29.22 1.25.21 1.23.21 1.2.2 1.17.21 1.15.2 1.11.2 1.1.2 1.06.19 1.04.18 1.01.19 1 .18.95.18.94.17.91.17.89.17.86.16.83.16.81.16.79.15.76.15.74.15.4.08-.03-.07-.24-.38-.23-.37-.22-.37-.23-.38-.22-.37-.22-.37-.22-.37-.22-.37-.21-.37-.21-.37-.21-.37-.2-.37-.21-.37-.2-.37-.2-.36-.2-.37-.2-.37-.19-.38-.19-.37-.18-.37-.19-.38-.18-.37-.18-.39-.18-.38-.18-.39-.17-.39-.17-.4-.17-.4-.14-.35-.1-.25-.07-.17-.07-.18-.07-.18-.08-.18-.08-.18-.07-.17-.08-.18-.08-.18-.08-.18-.08-.18-.08-.18-.09-.17-.08-.18-.09-.18-.09-.18-.08-.18-.1-.18-.08-.18-.1-.18-.09-.18-.09-.18-.1-.18-.09-.18-.1-.18-.1-.18-.1-.18-.09-.18-.1-.18-.1-.18-.1-.18-.11-.18-.1-.18-.11-.18-.1-.18-.12-.18-.1-.18-.12-.18-.1-.18-.12-.18-.11-.19-.12-.18-.12-.18-.11-.18-.12-.18-.12-.18-.12-.18-.12-.18-.12-.18-.13-.18-.12-.18-.12-.18-.13-.19-.13-.18-.13-.18-.12-.18-.13-.18-.14-.18-.13-.18-.13-.18-.14-.18-.13-.18-.14-.18-.14-.18-.13-.18-.14-.18-.15-.19-.14-.18-.14-.18-.14-.18-.15-.18-.14-.18-.15-.18-.14-.18-.15-.18-.15-.18-.15-.17-.15-.18-.16-.18-.15-.18-.15-.18-.16-.18-.16-.18-.15-.18-.16-.18-.16-.17-.16-.18-.16-.18-.16-.18-.16-.18-.17-.17-.16-.18-.17-.18-.16-.18-.17-.17-.17-.18-.17-.18-.16-.17-.18-.18-.17-.18-.17-.17-.17-.18-.18-.17-.17-.18-.18-.17-.17-.18-.18-.17-.18-.18-.18-.17-.18-.18-.18-.17-.18-.17-.18-.18-.19-.17-.18-.17-.18-.17-.19-.18-.19-.17-.18-.17-.19-.17-.19-.17-.19-.17-.2-.18-.18-.16-.2-.17-.18-.18-.2-.17-.2-.16-.19-.17-.2-.17-.19-.17-.2-.17-.2-.17-.2-.16-.19-.17-.2-.17-.2-.16-.2-.17-.2-.17-.2-.16-.2-.17-.21-.16-.2-.17-.21-.16-.2-.17-.21-.16-.2-.16-.22-.16-.2-.17-.21-.16-.21-.16-.21-.16-.21-.17-.2-.15-.44-.33-.43-.32-.42-.31-.44-.32-.43-.31-.43-.32-.44-.3-.44-.32-.44-.3-.45-.31-.44-.3-.45-.3-.45-.31-.45-.3-.45-.3-.46-.3-.45-.29-.46-.29-.46-.29-.46-.29-.46-.29-.46-.28-.47-.28-.46-.28-.47-.28-.47-.28-.47-.28-.47-.27-.47-.27-.48-.27-.47-.27-.47-.26-.48-.26-.48-.27-.47-.26-.48-.25-.48-.26-.48-.25-.48-.25-.48-.25-.48-.24-.48-.25-.48-.24-.49-.24-.48-.23-.48-.24-.48-.23-.49-.23-.48-.23-.48-.22-.49-.23-.5-.23-.52-.23-.53-.24-.54-.25-.55-.24-.57-.25-.57-.25-.59-.25-.6-.26-.6-.25-.62-.26-.62-.26-.63-.26-.65-.26-.31-.13-.32-.13-.33-.13-.32-.13-.33-.13-.33-.12-.33-.13-.34-.13-.33-.13-.34-.13-.33-.12-.34-.13-.34-.13-.34-.12-.34-.13-.34-.12-.34-.13-.34-.12-.35-.12-.34-.12-.34-.12-.35-.12-.34-.12-.35-.12-.35-.12-.34-.11-.35-.12-.34-.11-.35-.11-.35-.12-.34-.1-.35-.11-.34-.11-.35-.1-.34-.11-.35-.1-.34-.1-.34-.1-.34-.1-.35-.1-.33-.1-.34-.1-.34-.09-.34-.09-.33-.09-.34-.09-.33-.08-.33-.09-.33-.08-.33-.08-.33-.08-.32-.07-.33-.08-.32-.07-.32-.07-.31-.07-.32-.06-.3-.07-.32-.06-.3-.06-.31-.05-.3-.06-.3-.05-.3-.05-.29-.05-.28-.05-.3-.04-.27-.04-.28-.04-.28-.04-.27-.03-.26-.04-.27-.03-.26-.02-.25-.03-.25-.02-.25-.02-.24-.02-.24-.02-.24-.01-.1-.01h-.11l-.11-.01h-.22l-.1-.01h-.22l-.1-.01h-.5zm117.61 61.71l-1 .24 1.04-.21.97-.15-1 .12zm5.23-.08h-.03l-.2-.02.23.02zm-3.25-.14l-.82.09.99-.08.77-.01h-.94zm1.34 0l.76.03-.36-.03h-.4z"/>
  </g>
</svg>
